<?xml version="1.0" standalone="no"?><!-- Generator: Gravit.io --><svg xmlns="http://www.w3.org/2000/svg" xmlns:xlink="http://www.w3.org/1999/xlink" style="isolation:isolate" viewBox="760 52.239 400 263.373" width="400" height="263.373"><g id="DLogoV"><path d=" M 790.315 311.986 L 790.315 315.37 L 781.612 315.37 L 781.612 311.986 L 783.788 311.986 L 783.788 301.833 L 781.612 301.833 L 781.612 298.449 L 790.315 298.449 L 790.315 301.833 L 788.139 301.833 L 788.139 311.986 L 790.315 311.986 Z  M 820.147 298.449 L 820.147 315.37 L 815.554 315.37 L 809.752 305.217 L 809.752 315.37 L 805.401 315.37 L 805.401 298.449 L 809.994 298.449 L 815.796 308.602 L 815.796 298.449 L 820.147 298.449 Z  M 844.177 301.833 L 844.177 315.37 L 839.826 315.37 L 839.826 301.833 L 834.749 301.833 L 834.749 298.449 L 849.254 298.449 L 849.254 301.833 L 844.177 301.833 Z  M 877.273 311.986 L 877.273 315.37 L 863.856 315.37 L 863.856 298.449 L 877.273 298.449 L 877.273 301.833 L 868.207 301.833 L 868.207 305.096 L 875.339 305.096 L 875.339 308.481 L 868.207 308.481 L 868.207 311.986 L 877.273 311.986 Z  M 892.117 315.37 L 892.117 298.449 L 902.27 298.449 L 902.27 298.449 Q 904.808 298.449 905.956 299.597 L 905.956 299.597 L 905.956 299.597 Q 907.105 300.745 907.105 303.283 L 907.105 303.283 L 907.105 305.459 L 907.105 305.459 Q 907.105 307.465 906.44 308.577 L 906.44 308.577 L 906.44 308.577 Q 905.775 309.689 904.325 310.052 L 904.325 310.052 L 907.346 315.37 L 902.633 315.37 L 899.853 310.294 L 896.468 310.294 L 896.468 315.37 L 892.117 315.37 Z  M 902.753 305.459 L 902.753 303.283 L 902.753 303.283 Q 902.753 301.833 901.303 301.833 L 901.303 301.833 L 896.468 301.833 L 896.468 306.909 L 901.303 306.909 L 901.303 306.909 Q 902.753 306.909 902.753 305.459 L 902.753 305.459 Z  M 937.178 298.449 L 937.178 315.37 L 932.585 315.37 L 926.784 305.217 L 926.784 315.37 L 922.432 315.37 L 922.432 298.449 L 927.025 298.449 L 932.827 308.602 L 932.827 298.449 L 937.178 298.449 Z  M 957.099 312.349 L 956.011 315.37 L 951.297 315.37 L 957.704 298.449 L 962.538 298.449 L 968.944 315.37 L 964.23 315.37 L 963.143 312.349 L 957.099 312.349 Z  M 960.121 303.525 L 958.187 309.206 L 962.055 309.206 L 960.121 303.525 Z  M 991.282 301.833 L 991.282 315.37 L 986.931 315.37 L 986.931 301.833 L 981.855 301.833 L 981.855 298.449 L 996.359 298.449 L 996.359 301.833 L 991.282 301.833 Z  M 1018.939 311.986 L 1018.939 315.37 L 1010.236 315.37 L 1010.236 311.986 L 1012.412 311.986 L 1012.412 301.833 L 1010.236 301.833 L 1010.236 298.449 L 1018.939 298.449 L 1018.939 301.833 L 1016.763 301.833 L 1016.763 311.986 L 1018.939 311.986 Z  M 1044.903 310.777 L 1044.903 303.042 L 1044.903 303.042 Q 1044.903 301.591 1043.453 301.591 L 1043.453 301.591 L 1039.343 301.591 L 1039.343 301.591 Q 1037.893 301.591 1037.893 303.042 L 1037.893 303.042 L 1037.893 310.777 L 1037.893 310.777 Q 1037.893 312.228 1039.343 312.228 L 1039.343 312.228 L 1043.453 312.228 L 1043.453 312.228 Q 1044.903 312.228 1044.903 310.777 L 1044.903 310.777 Z  M 1049.254 303.042 L 1049.254 310.777 L 1049.254 310.777 Q 1049.254 313.315 1048.106 314.464 L 1048.106 314.464 L 1048.106 314.464 Q 1046.958 315.612 1044.419 315.612 L 1044.419 315.612 L 1038.376 315.612 L 1038.376 315.612 Q 1035.838 315.612 1034.69 314.464 L 1034.69 314.464 L 1034.69 314.464 Q 1033.541 313.315 1033.541 310.777 L 1033.541 310.777 L 1033.541 303.042 L 1033.541 303.042 Q 1033.541 300.503 1034.69 299.355 L 1034.69 299.355 L 1034.69 299.355 Q 1035.838 298.207 1038.376 298.207 L 1038.376 298.207 L 1044.419 298.207 L 1044.419 298.207 Q 1046.958 298.207 1048.106 299.355 L 1048.106 299.355 L 1048.106 299.355 Q 1049.254 300.503 1049.254 303.042 L 1049.254 303.042 Z  M 1079.328 298.449 L 1079.328 315.37 L 1074.735 315.37 L 1068.933 305.217 L 1068.933 315.37 L 1064.582 315.37 L 1064.582 298.449 L 1069.175 298.449 L 1074.977 308.602 L 1074.977 298.449 L 1079.328 298.449 Z  M 1099.249 312.349 L 1098.161 315.37 L 1093.447 315.37 L 1099.853 298.449 L 1104.688 298.449 L 1111.094 315.37 L 1106.38 315.37 L 1105.292 312.349 L 1099.249 312.349 Z  M 1102.27 303.525 L 1100.337 309.206 L 1104.204 309.206 L 1102.27 303.525 Z  M 1129.564 298.449 L 1129.564 311.986 L 1138.388 311.986 L 1138.388 315.37 L 1125.213 315.37 L 1125.213 298.449 L 1129.564 298.449 Z " fill-rule="evenodd" fill="rgb(46,46,46)"/><path d=" M 799.409 208.828 L 799.409 208.828 Q 801.222 208.828 802.325 209.931 L 802.325 209.931 L 802.325 209.931 Q 803.429 211.034 803.429 212.847 L 803.429 212.847 L 803.429 248.788 L 803.429 248.788 Q 803.429 254.936 800.552 259.941 L 800.552 259.941 L 800.552 259.941 Q 797.675 264.946 792.749 267.823 L 792.749 267.823 L 792.749 267.823 Q 787.823 270.699 781.754 270.699 L 781.754 270.699 L 781.754 270.699 Q 775.685 270.699 770.68 267.823 L 770.68 267.823 L 770.68 267.823 Q 765.675 264.946 762.837 259.941 L 762.837 259.941 L 762.837 259.941 Q 760 254.936 760 248.788 L 760 248.788 L 760 248.788 Q 760 242.64 762.64 237.635 L 762.64 237.635 L 762.64 237.635 Q 765.281 232.63 769.892 229.793 L 769.892 229.793 L 769.892 229.793 Q 774.502 226.956 780.177 226.956 L 780.177 226.956 L 780.177 226.956 Q 784.749 226.956 788.69 228.847 L 788.69 228.847 L 788.69 228.847 Q 792.631 230.739 795.389 234.128 L 795.389 234.128 L 795.389 212.847 L 795.389 212.847 Q 795.389 211.034 796.532 209.931 L 796.532 209.931 L 796.532 209.931 Q 797.675 208.828 799.409 208.828 L 799.409 208.828 Z  M 781.754 263.606 L 781.754 263.606 Q 785.695 263.606 788.887 261.675 L 788.887 261.675 L 788.887 261.675 Q 792.079 259.744 793.892 256.355 L 793.892 256.355 L 793.892 256.355 Q 795.704 252.966 795.704 248.788 L 795.704 248.788 L 795.704 248.788 Q 795.704 244.611 793.892 241.261 L 793.892 241.261 L 793.892 241.261 Q 792.079 237.911 788.887 235.98 L 788.887 235.98 L 788.887 235.98 Q 785.695 234.049 781.754 234.049 L 781.754 234.049 L 781.754 234.049 Q 777.813 234.049 774.621 235.98 L 774.621 235.98 L 774.621 235.98 Q 771.429 237.911 769.576 241.261 L 769.576 241.261 L 769.576 241.261 Q 767.724 244.611 767.724 248.788 L 767.724 248.788 L 767.724 248.788 Q 767.724 252.966 769.576 256.355 L 769.576 256.355 L 769.576 256.355 Q 771.429 259.744 774.621 261.675 L 774.621 261.675 L 774.621 261.675 Q 777.813 263.606 781.754 263.606 L 781.754 263.606 Z  M 856.315 248.158 L 856.315 248.158 Q 856.315 249.655 855.291 250.64 L 855.291 250.64 L 855.291 250.64 Q 854.266 251.626 852.69 251.626 L 852.69 251.626 L 822.739 251.626 L 822.739 251.626 Q 823.606 257.143 827.744 260.532 L 827.744 260.532 L 827.744 260.532 Q 831.882 263.921 837.872 263.921 L 837.872 263.921 L 837.872 263.921 Q 840.236 263.921 842.798 263.054 L 842.798 263.054 L 842.798 263.054 Q 845.36 262.187 847.015 260.926 L 847.015 260.926 L 847.015 260.926 Q 848.118 260.059 849.616 260.059 L 849.616 260.059 L 849.616 260.059 Q 851.113 260.059 851.98 260.847 L 851.98 260.847 L 851.98 260.847 Q 853.399 262.03 853.399 263.527 L 853.399 263.527 L 853.399 263.527 Q 853.399 264.946 852.138 265.892 L 852.138 265.892 L 852.138 265.892 Q 849.458 268.02 845.478 269.36 L 845.478 269.36 L 845.478 269.36 Q 841.498 270.699 837.872 270.699 L 837.872 270.699 L 837.872 270.699 Q 831.409 270.699 826.286 267.901 L 826.286 267.901 L 826.286 267.901 Q 821.163 265.103 818.286 260.138 L 818.286 260.138 L 818.286 260.138 Q 815.409 255.172 815.409 248.867 L 815.409 248.867 L 815.409 248.867 Q 815.409 242.562 818.128 237.557 L 818.128 237.557 L 818.128 237.557 Q 820.847 232.552 825.695 229.754 L 825.695 229.754 L 825.695 229.754 Q 830.542 226.956 836.69 226.956 L 836.69 226.956 L 836.69 226.956 Q 842.759 226.956 847.172 229.635 L 847.172 229.635 L 847.172 229.635 Q 851.586 232.315 853.951 237.123 L 853.951 237.123 L 853.951 237.123 Q 856.315 241.931 856.315 248.158 L 856.315 248.158 Z  M 836.69 233.734 L 836.69 233.734 Q 830.936 233.734 827.35 236.887 L 827.35 236.887 L 827.35 236.887 Q 823.764 240.039 822.818 245.32 L 822.818 245.32 L 849.064 245.32 L 849.064 245.32 Q 848.355 240.039 845.123 236.887 L 845.123 236.887 L 845.123 236.887 Q 841.892 233.734 836.69 233.734 L 836.69 233.734 Z  M 882.246 270.699 L 882.246 270.699 Q 876.887 270.699 872.158 269.044 L 872.158 269.044 L 872.158 269.044 Q 867.429 267.389 864.749 264.709 L 864.749 264.709 L 864.749 264.709 Q 863.724 263.685 863.724 262.266 L 863.724 262.266 L 863.724 262.266 Q 863.724 260.374 865.301 259.192 L 865.301 259.192 L 865.301 259.192 Q 866.798 258.089 868.059 258.089 L 868.059 258.089 L 868.059 258.089 Q 869.635 258.089 871.054 259.507 L 871.054 259.507 L 871.054 259.507 Q 872.552 261.163 875.547 262.384 L 875.547 262.384 L 875.547 262.384 Q 878.542 263.606 881.931 263.606 L 881.931 263.606 L 881.931 263.606 Q 886.424 263.606 888.906 262.108 L 888.906 262.108 L 888.906 262.108 Q 891.389 260.611 891.389 258.089 L 891.389 258.089 L 891.389 258.089 Q 891.389 255.645 888.946 254.03 L 888.946 254.03 L 888.946 254.03 Q 886.502 252.414 880.67 251.31 L 880.67 251.31 L 880.67 251.31 Q 865.537 248.394 865.537 238.857 L 865.537 238.857 L 865.537 238.857 Q 865.537 234.995 867.823 232.315 L 867.823 232.315 L 867.823 232.315 Q 870.108 229.635 873.813 228.296 L 873.813 228.296 L 873.813 228.296 Q 877.517 226.956 881.695 226.956 L 881.695 226.956 L 881.695 226.956 Q 886.818 226.956 890.877 228.611 L 890.877 228.611 L 890.877 228.611 Q 894.936 230.266 897.3 233.182 L 897.3 233.182 L 897.3 233.182 Q 898.325 234.443 898.325 235.704 L 898.325 235.704 L 898.325 235.704 Q 898.325 237.044 896.985 238.148 L 896.985 238.148 L 896.985 238.148 Q 896.118 238.778 894.778 238.778 L 894.778 238.778 L 894.778 238.778 Q 892.729 238.778 891.074 237.281 L 891.074 237.281 L 891.074 237.281 Q 889.103 235.468 886.897 234.719 L 886.897 234.719 L 886.897 234.719 Q 884.69 233.97 881.537 233.97 L 881.537 233.97 L 881.537 233.97 Q 877.911 233.97 875.586 235.192 L 875.586 235.192 L 875.586 235.192 Q 873.261 236.414 873.261 238.621 L 873.261 238.621 L 873.261 238.621 Q 873.261 240.197 874.049 241.261 L 874.049 241.261 L 874.049 241.261 Q 874.837 242.325 877.044 243.232 L 877.044 243.232 L 877.044 243.232 Q 879.251 244.138 883.429 245.005 L 883.429 245.005 L 883.429 245.005 Q 892.02 246.739 895.606 249.813 L 895.606 249.813 L 895.606 249.813 Q 899.192 252.887 899.192 257.773 L 899.192 257.773 L 899.192 257.773 Q 899.192 261.399 897.222 264.355 L 897.222 264.355 L 897.222 264.355 Q 895.251 267.31 891.429 269.005 L 891.429 269.005 L 891.429 269.005 Q 887.606 270.699 882.246 270.699 L 882.246 270.699 Z  M 914.167 270.384 L 914.167 270.384 Q 912.433 270.384 911.291 269.241 L 911.291 269.241 L 911.291 269.241 Q 910.148 268.099 910.148 266.365 L 910.148 266.365 L 910.148 231.291 L 910.148 231.291 Q 910.148 229.478 911.291 228.374 L 911.291 228.374 L 911.291 228.374 Q 912.433 227.271 914.167 227.271 L 914.167 227.271 L 914.167 227.271 Q 915.98 227.271 917.084 228.374 L 917.084 228.374 L 917.084 228.374 Q 918.187 229.478 918.187 231.291 L 918.187 231.291 L 918.187 266.365 L 918.187 266.365 Q 918.187 268.099 917.084 269.241 L 917.084 269.241 L 917.084 269.241 Q 915.98 270.384 914.167 270.384 L 914.167 270.384 Z  M 914.167 220.256 L 914.167 220.256 Q 912.039 220.256 910.502 218.719 L 910.502 218.719 L 910.502 218.719 Q 908.966 217.182 908.966 215.054 L 908.966 215.054 L 908.966 215.054 Q 908.966 212.926 910.502 211.389 L 910.502 211.389 L 910.502 211.389 Q 912.039 209.852 914.167 209.852 L 914.167 209.852 L 914.167 209.852 Q 916.296 209.852 917.833 211.389 L 917.833 211.389 L 917.833 211.389 Q 919.369 212.926 919.369 215.054 L 919.369 215.054 L 919.369 215.054 Q 919.369 217.182 917.833 218.719 L 917.833 218.719 L 917.833 218.719 Q 916.296 220.256 914.167 220.256 L 914.167 220.256 Z  M 952.709 226.956 L 952.709 226.956 Q 958.936 226.956 963.862 229.754 L 963.862 229.754 L 963.862 229.754 Q 968.788 232.552 971.586 237.517 L 971.586 237.517 L 971.586 237.517 Q 974.384 242.483 974.384 248.867 L 974.384 248.867 L 974.384 265.892 L 974.384 265.892 Q 974.384 272.118 971.626 277.241 L 971.626 277.241 L 971.626 277.241 Q 968.867 282.365 963.862 285.32 L 963.862 285.32 L 963.862 285.32 Q 958.857 288.276 952.552 288.276 L 952.552 288.276 L 952.552 288.276 Q 946.877 288.276 941.99 286.03 L 941.99 286.03 L 941.99 286.03 Q 937.103 283.783 933.793 279.606 L 933.793 279.606 L 933.793 279.606 Q 932.926 278.502 932.926 277.399 L 932.926 277.399 L 932.926 277.399 Q 932.926 275.744 934.581 274.562 L 934.581 274.562 L 934.581 274.562 Q 935.685 273.852 936.788 273.852 L 936.788 273.852 L 936.788 273.852 Q 938.759 273.852 940.02 275.507 L 940.02 275.507 L 940.02 275.507 Q 942.148 278.266 945.379 279.724 L 945.379 279.724 L 945.379 279.724 Q 948.611 281.182 952.709 281.182 L 952.709 281.182 L 952.709 281.182 Q 956.571 281.182 959.724 279.33 L 959.724 279.33 L 959.724 279.33 Q 962.877 277.478 964.768 273.892 L 964.768 273.892 L 964.768 273.892 Q 966.66 270.305 966.66 265.34 L 966.66 265.34 L 966.66 261.478 L 966.66 261.478 Q 964.217 265.813 960.197 268.256 L 960.197 268.256 L 960.197 268.256 Q 956.177 270.699 951.133 270.699 L 951.133 270.699 L 951.133 270.699 Q 945.301 270.699 940.69 267.901 L 940.69 267.901 L 940.69 267.901 Q 936.079 265.103 933.517 260.138 L 933.517 260.138 L 933.517 260.138 Q 930.956 255.172 930.956 248.867 L 930.956 248.867 L 930.956 248.867 Q 930.956 242.483 933.714 237.517 L 933.714 237.517 L 933.714 237.517 Q 936.473 232.552 941.438 229.754 L 941.438 229.754 L 941.438 229.754 Q 946.404 226.956 952.709 226.956 L 952.709 226.956 Z  M 952.709 263.606 L 952.709 263.606 Q 956.729 263.606 959.921 261.714 L 959.921 261.714 L 959.921 261.714 Q 963.113 259.823 964.887 256.473 L 964.887 256.473 L 964.887 256.473 Q 966.66 253.123 966.66 248.867 L 966.66 248.867 L 966.66 248.867 Q 966.66 244.611 964.887 241.222 L 964.887 241.222 L 964.887 241.222 Q 963.113 237.832 959.921 235.941 L 959.921 235.941 L 959.921 235.941 Q 956.729 234.049 952.709 234.049 L 952.709 234.049 L 952.709 234.049 Q 948.69 234.049 945.498 235.941 L 945.498 235.941 L 945.498 235.941 Q 942.305 237.832 940.493 241.222 L 940.493 241.222 L 940.493 241.222 Q 938.68 244.611 938.68 248.867 L 938.68 248.867 L 938.68 248.867 Q 938.68 253.123 940.493 256.473 L 940.493 256.473 L 940.493 256.473 Q 942.305 259.823 945.498 261.714 L 945.498 261.714 L 945.498 261.714 Q 948.69 263.606 952.709 263.606 L 952.709 263.606 Z  M 1007.803 226.877 L 1007.803 226.877 Q 1013.241 226.877 1017.576 229.241 L 1017.576 229.241 L 1017.576 229.241 Q 1021.911 231.606 1024.355 236.138 L 1024.355 236.138 L 1024.355 236.138 Q 1026.798 240.67 1026.798 247.054 L 1026.798 247.054 L 1026.798 266.443 L 1026.798 266.443 Q 1026.798 268.177 1025.655 269.32 L 1025.655 269.32 L 1025.655 269.32 Q 1024.512 270.463 1022.778 270.463 L 1022.778 270.463 L 1022.778 270.463 Q 1021.044 270.463 1019.901 269.32 L 1019.901 269.32 L 1019.901 269.32 Q 1018.759 268.177 1018.759 266.443 L 1018.759 266.443 L 1018.759 247.054 L 1018.759 247.054 Q 1018.759 240.67 1015.33 237.399 L 1015.33 237.399 L 1015.33 237.399 Q 1011.901 234.128 1006.227 234.128 L 1006.227 234.128 L 1006.227 234.128 Q 1002.916 234.128 1000.197 235.468 L 1000.197 235.468 L 1000.197 235.468 Q 997.478 236.808 995.941 239.094 L 995.941 239.094 L 995.941 239.094 Q 994.404 241.379 994.404 244.217 L 994.404 244.217 L 994.404 266.443 L 994.404 266.443 Q 994.404 268.177 993.3 269.32 L 993.3 269.32 L 993.3 269.32 Q 992.197 270.463 990.384 270.463 L 990.384 270.463 L 990.384 270.463 Q 988.65 270.463 987.507 269.32 L 987.507 269.32 L 987.507 269.32 Q 986.365 268.177 986.365 266.443 L 986.365 266.443 L 986.365 231.291 L 986.365 231.291 Q 986.365 229.478 987.507 228.374 L 987.507 228.374 L 987.507 228.374 Q 988.65 227.271 990.384 227.271 L 990.384 227.271 L 990.384 227.271 Q 992.197 227.271 993.3 228.374 L 993.3 228.374 L 993.3 228.374 Q 994.404 229.478 994.404 231.291 L 994.404 231.291 L 994.404 232.158 L 994.404 232.158 Q 996.926 229.635 1000.394 228.256 L 1000.394 228.256 L 1000.394 228.256 Q 1003.862 226.877 1007.803 226.877 L 1007.803 226.877 Z  M 1078.818 248.158 L 1078.818 248.158 Q 1078.818 249.655 1077.793 250.64 L 1077.793 250.64 L 1077.793 250.64 Q 1076.768 251.626 1075.192 251.626 L 1075.192 251.626 L 1045.241 251.626 L 1045.241 251.626 Q 1046.108 257.143 1050.246 260.532 L 1050.246 260.532 L 1050.246 260.532 Q 1054.384 263.921 1060.374 263.921 L 1060.374 263.921 L 1060.374 263.921 Q 1062.739 263.921 1065.3 263.054 L 1065.3 263.054 L 1065.3 263.054 Q 1067.862 262.187 1069.517 260.926 L 1069.517 260.926 L 1069.517 260.926 Q 1070.621 260.059 1072.118 260.059 L 1072.118 260.059 L 1072.118 260.059 Q 1073.616 260.059 1074.483 260.847 L 1074.483 260.847 L 1074.483 260.847 Q 1075.901 262.03 1075.901 263.527 L 1075.901 263.527 L 1075.901 263.527 Q 1075.901 264.946 1074.64 265.892 L 1074.64 265.892 L 1074.64 265.892 Q 1071.961 268.02 1067.98 269.36 L 1067.98 269.36 L 1067.98 269.36 Q 1064 270.699 1060.374 270.699 L 1060.374 270.699 L 1060.374 270.699 Q 1053.911 270.699 1048.788 267.901 L 1048.788 267.901 L 1048.788 267.901 Q 1043.665 265.103 1040.788 260.138 L 1040.788 260.138 L 1040.788 260.138 Q 1037.911 255.172 1037.911 248.867 L 1037.911 248.867 L 1037.911 248.867 Q 1037.911 242.562 1040.631 237.557 L 1040.631 237.557 L 1040.631 237.557 Q 1043.35 232.552 1048.197 229.754 L 1048.197 229.754 L 1048.197 229.754 Q 1053.044 226.956 1059.192 226.956 L 1059.192 226.956 L 1059.192 226.956 Q 1065.261 226.956 1069.675 229.635 L 1069.675 229.635 L 1069.675 229.635 Q 1074.089 232.315 1076.453 237.123 L 1076.453 237.123 L 1076.453 237.123 Q 1078.818 241.931 1078.818 248.158 L 1078.818 248.158 Z  M 1059.192 233.734 L 1059.192 233.734 Q 1053.438 233.734 1049.852 236.887 L 1049.852 236.887 L 1049.852 236.887 Q 1046.266 240.039 1045.32 245.32 L 1045.32 245.32 L 1071.567 245.32 L 1071.567 245.32 Q 1070.857 240.039 1067.626 236.887 L 1067.626 236.887 L 1067.626 236.887 Q 1064.394 233.734 1059.192 233.734 L 1059.192 233.734 Z  M 1110.187 226.798 L 1110.187 226.798 Q 1114.365 226.798 1116.729 228.059 L 1116.729 228.059 L 1116.729 228.059 Q 1119.094 229.32 1119.094 231.212 L 1119.094 231.212 L 1119.094 231.212 Q 1119.094 231.763 1119.015 232 L 1119.015 232 L 1119.015 232 Q 1118.305 234.522 1115.862 234.522 L 1115.862 234.522 L 1115.862 234.522 Q 1115.468 234.522 1114.68 234.365 L 1114.68 234.365 L 1114.68 234.365 Q 1111.527 233.813 1109.557 233.813 L 1109.557 233.813 L 1109.557 233.813 Q 1103.882 233.813 1100.414 236.414 L 1100.414 236.414 L 1100.414 236.414 Q 1096.946 239.015 1096.946 243.429 L 1096.946 243.429 L 1096.946 266.443 L 1096.946 266.443 Q 1096.946 268.335 1095.961 269.36 L 1095.961 269.36 L 1095.961 269.36 Q 1094.975 270.384 1093.005 270.384 L 1093.005 270.384 L 1093.005 270.384 Q 1091.113 270.384 1090.089 269.399 L 1090.089 269.399 L 1090.089 269.399 Q 1089.064 268.414 1089.064 266.443 L 1089.064 266.443 L 1089.064 231.212 L 1089.064 231.212 Q 1089.064 229.32 1090.089 228.296 L 1090.089 228.296 L 1090.089 228.296 Q 1091.113 227.271 1093.005 227.271 L 1093.005 227.271 L 1093.005 227.271 Q 1096.946 227.271 1096.946 231.212 L 1096.946 231.212 L 1096.946 232.709 L 1096.946 232.709 Q 1099.31 229.951 1102.778 228.374 L 1102.778 228.374 L 1102.778 228.374 Q 1106.246 226.798 1110.187 226.798 L 1110.187 226.798 Z  M 1143.054 270.699 L 1143.054 270.699 Q 1137.695 270.699 1132.966 269.044 L 1132.966 269.044 L 1132.966 269.044 Q 1128.236 267.389 1125.557 264.709 L 1125.557 264.709 L 1125.557 264.709 Q 1124.532 263.685 1124.532 262.266 L 1124.532 262.266 L 1124.532 262.266 Q 1124.532 260.374 1126.108 259.192 L 1126.108 259.192 L 1126.108 259.192 Q 1127.606 258.089 1128.867 258.089 L 1128.867 258.089 L 1128.867 258.089 Q 1130.443 258.089 1131.862 259.507 L 1131.862 259.507 L 1131.862 259.507 Q 1133.36 261.163 1136.355 262.384 L 1136.355 262.384 L 1136.355 262.384 Q 1139.35 263.606 1142.739 263.606 L 1142.739 263.606 L 1142.739 263.606 Q 1147.232 263.606 1149.714 262.108 L 1149.714 262.108 L 1149.714 262.108 Q 1152.197 260.611 1152.197 258.089 L 1152.197 258.089 L 1152.197 258.089 Q 1152.197 255.645 1149.754 254.03 L 1149.754 254.03 L 1149.754 254.03 Q 1147.31 252.414 1141.478 251.31 L 1141.478 251.31 L 1141.478 251.31 Q 1126.345 248.394 1126.345 238.857 L 1126.345 238.857 L 1126.345 238.857 Q 1126.345 234.995 1128.631 232.315 L 1128.631 232.315 L 1128.631 232.315 Q 1130.916 229.635 1134.621 228.296 L 1134.621 228.296 L 1134.621 228.296 Q 1138.325 226.956 1142.502 226.956 L 1142.502 226.956 L 1142.502 226.956 Q 1147.626 226.956 1151.685 228.611 L 1151.685 228.611 L 1151.685 228.611 Q 1155.744 230.266 1158.108 233.182 L 1158.108 233.182 L 1158.108 233.182 Q 1159.133 234.443 1159.133 235.704 L 1159.133 235.704 L 1159.133 235.704 Q 1159.133 237.044 1157.793 238.148 L 1157.793 238.148 L 1157.793 238.148 Q 1156.926 238.778 1155.586 238.778 L 1155.586 238.778 L 1155.586 238.778 Q 1153.537 238.778 1151.882 237.281 L 1151.882 237.281 L 1151.882 237.281 Q 1149.911 235.468 1147.704 234.719 L 1147.704 234.719 L 1147.704 234.719 Q 1145.498 233.97 1142.345 233.97 L 1142.345 233.97 L 1142.345 233.97 Q 1138.719 233.97 1136.394 235.192 L 1136.394 235.192 L 1136.394 235.192 Q 1134.069 236.414 1134.069 238.621 L 1134.069 238.621 L 1134.069 238.621 Q 1134.069 240.197 1134.857 241.261 L 1134.857 241.261 L 1134.857 241.261 Q 1135.645 242.325 1137.852 243.232 L 1137.852 243.232 L 1137.852 243.232 Q 1140.059 244.138 1144.236 245.005 L 1144.236 245.005 L 1144.236 245.005 Q 1152.828 246.739 1156.414 249.813 L 1156.414 249.813 L 1156.414 249.813 Q 1160 252.887 1160 257.773 L 1160 257.773 L 1160 257.773 Q 1160 261.399 1158.03 264.355 L 1158.03 264.355 L 1158.03 264.355 Q 1156.059 267.31 1152.236 269.005 L 1152.236 269.005 L 1152.236 269.005 Q 1148.414 270.699 1143.054 270.699 L 1143.054 270.699 Z " fill-rule="evenodd" fill="rgb(46,46,46)"/><g id="v_DLogoV"><path d=" M 1001.998 184.513 L 1001.998 188.966 L 1001.388 188.966 L 1001.388 184.513 L 999.724 184.513 L 999.724 184 L 1003.662 184 L 1003.662 184.513 L 1001.998 184.513 Z  M 1007.269 188.966 L 1006.777 188.966 L 1004.995 184.564 L 1004.966 184.564 L 1004.966 184.564 Q 1005.017 185.087 1005.017 185.807 L 1005.017 185.807 L 1005.017 188.966 L 1004.452 188.966 L 1004.452 184 L 1005.372 184 L 1007.036 188.096 L 1007.065 188.096 L 1008.743 184 L 1009.655 184 L 1009.655 188.966 L 1009.044 188.966 L 1009.044 185.766 L 1009.044 185.766 Q 1009.044 185.216 1009.095 184.571 L 1009.095 184.571 L 1009.066 184.571 L 1007.269 188.966 Z " fill-rule="evenodd" fill="rgb(0,0,0)"/><path d=" M 989.793 144.238 L 989.793 59.862 C 989.793 55.751 993.131 52.414 997.241 52.414 C 1001.352 52.414 1004.69 55.751 1004.69 59.862 L 1004.69 144.276 C 1004.69 144.276 1004.69 144.276 1004.69 144.276 C 1004.69 153.4 1001.949 161.89 997.241 168.961 C 992.533 161.89 989.793 153.4 989.793 144.276 C 989.793 144.263 989.793 144.25 989.793 144.238 Z " fill="rgb(46,46,46)" vector-effect="non-scaling-stroke" stroke-width="0.35" stroke="rgb(46,46,46)" stroke-linejoin="round" stroke-linecap="round" stroke-miterlimit="3"/><path d=" M 979.862 104.238 C 973.878 101.261 967.133 99.586 960 99.586 C 935.335 99.586 915.31 119.611 915.31 144.276 C 915.31 168.941 935.335 188.966 960 188.966 C 971.849 188.966 982.626 184.344 990.627 176.807 C 987.508 172.628 984.981 167.982 983.165 162.996 C 977.705 169.75 969.353 174.069 960 174.069 C 943.557 174.069 930.207 160.719 930.207 144.276 C 930.207 127.833 943.557 114.483 960 114.483 C 967.628 114.483 974.591 117.356 979.862 122.08 L 979.862 104.238 Z " fill="rgb(46,46,46)" vector-effect="non-scaling-stroke" stroke-width="0.35" stroke="rgb(46,46,46)" stroke-linejoin="round" stroke-linecap="round" stroke-miterlimit="3"/><path d=" M 963.118 54.897 L 915.31 54.897 L 915.31 82.594 C 928.689 69.918 945.002 60.309 963.118 54.897 Z " fill="rgb(255,0,0)" vector-effect="non-scaling-stroke" stroke-width="0.701" stroke="rgb(255,0,0)" stroke-linejoin="round" stroke-linecap="round" stroke-miterlimit="3"/></g></g></svg>