<?xml version="1.0" standalone="no"?><!-- Generator: Gravit.io --><svg xmlns="http://www.w3.org/2000/svg" xmlns:xlink="http://www.w3.org/1999/xlink" style="isolation:isolate" viewBox="772.64 961.72 374.72 58.28" width="374.72" height="58.28"><path d=" M 809.04 961.72 L 831.6 1020 L 821.12 1020 L 821.12 1020 Q 819.36 1020 818.22 1019.18 L 818.22 1019.18 L 818.22 1019.18 Q 817.08 1018.36 816.64 1017.08 L 816.64 1017.08 L 813.2 1006.92 L 791.04 1006.92 L 787.6 1017.08 L 787.6 1017.08 Q 787.2 1018.2 786.04 1019.1 L 786.04 1019.1 L 786.04 1019.1 Q 784.88 1020 783.2 1020 L 783.2 1020 L 772.64 1020 L 795.2 961.72 L 809.04 961.72 Z  M 799.52 981.84 L 794.16 997.72 L 810.08 997.72 L 804.72 981.76 L 804.72 981.76 Q 804.2 980.24 803.5 978.18 L 803.5 978.18 L 803.5 978.18 Q 802.8 976.12 802.12 973.72 L 802.12 973.72 L 802.12 973.72 Q 801.48 976.16 800.8 978.24 L 800.8 978.24 L 800.8 978.24 Q 800.12 980.32 799.52 981.84 L 799.52 981.84 Z  M 832.32 961.72 L 878.64 961.72 L 878.64 972.44 L 862.24 972.44 L 862.24 1020 L 848.72 1020 L 848.72 972.44 L 832.32 972.44 L 832.32 961.72 Z  M 897.76 961.72 L 897.76 1009.2 L 919.36 1009.2 L 919.36 1020 L 884.24 1020 L 884.24 961.72 L 897.76 961.72 Z  M 957.44 961.72 L 980 1020 L 969.52 1020 L 969.52 1020 Q 967.76 1020 966.62 1019.18 L 966.62 1019.18 L 966.62 1019.18 Q 965.48 1018.36 965.04 1017.08 L 965.04 1017.08 L 961.6 1006.92 L 939.44 1006.92 L 936 1017.08 L 936 1017.08 Q 935.6 1018.2 934.44 1019.1 L 934.44 1019.1 L 934.44 1019.1 Q 933.28 1020 931.6 1020 L 931.6 1020 L 921.04 1020 L 943.6 961.72 L 957.44 961.72 Z  M 947.92 981.84 L 942.56 997.72 L 958.48 997.72 L 953.12 981.76 L 953.12 981.76 Q 952.6 980.24 951.9 978.18 L 951.9 978.18 L 951.9 978.18 Q 951.2 976.12 950.52 973.72 L 950.52 973.72 L 950.52 973.72 Q 949.88 976.16 949.2 978.24 L 949.2 978.24 L 949.2 978.24 Q 948.52 980.32 947.92 981.84 L 947.92 981.84 Z  M 991.84 961.72 L 991.84 961.72 L 991.84 961.72 Q 992.72 961.72 993.32 961.8 L 993.32 961.8 L 993.32 961.8 Q 993.92 961.88 994.4 962.1 L 994.4 962.1 L 994.4 962.1 Q 994.88 962.32 995.32 962.72 L 995.32 962.72 L 995.32 962.72 Q 995.76 963.12 996.32 963.8 L 996.32 963.8 L 1024 998.8 L 1024 998.8 Q 1023.84 997.12 1023.76 995.54 L 1023.76 995.54 L 1023.76 995.54 Q 1023.68 993.96 1023.68 992.56 L 1023.68 992.56 L 1023.68 961.72 L 1035.6 961.72 L 1035.6 1020 L 1028.56 1020 L 1028.56 1020 Q 1027 1020 1025.92 1019.52 L 1025.92 1019.52 L 1025.92 1019.52 Q 1024.84 1019.04 1023.84 1017.76 L 1023.84 1017.76 L 996.36 983.04 L 996.36 983.04 Q 996.48 984.56 996.56 986.02 L 996.56 986.02 L 996.56 986.02 Q 996.64 987.48 996.64 988.76 L 996.64 988.76 L 996.64 1020 L 984.72 1020 L 984.72 961.72 L 991.84 961.72 Z  M 1041.2 961.72 L 1087.52 961.72 L 1087.52 972.44 L 1071.12 972.44 L 1071.12 1020 L 1057.6 1020 L 1057.6 972.44 L 1041.2 972.44 L 1041.2 961.72 Z  M 1124.8 961.72 L 1147.36 1020 L 1136.88 1020 L 1136.88 1020 Q 1135.12 1020 1133.98 1019.18 L 1133.98 1019.18 L 1133.98 1019.18 Q 1132.84 1018.36 1132.4 1017.08 L 1132.4 1017.08 L 1128.96 1006.92 L 1106.8 1006.92 L 1103.36 1017.08 L 1103.36 1017.08 Q 1102.96 1018.2 1101.8 1019.1 L 1101.8 1019.1 L 1101.8 1019.1 Q 1100.64 1020 1098.96 1020 L 1098.96 1020 L 1088.4 1020 L 1110.96 961.72 L 1124.8 961.72 Z  M 1115.28 981.84 L 1109.92 997.72 L 1125.84 997.72 L 1120.48 981.76 L 1120.48 981.76 Q 1119.96 980.24 1119.26 978.18 L 1119.26 978.18 L 1119.26 978.18 Q 1118.56 976.12 1117.88 973.72 L 1117.88 973.72 L 1117.88 973.72 Q 1117.24 976.16 1116.56 978.24 L 1116.56 978.24 L 1116.56 978.24 Q 1115.88 980.32 1115.28 981.84 L 1115.28 981.84 Z " fill-rule="evenodd" fill="rgb(168,212,231)"/></svg>