<?xml version="1.0" standalone="no"?><!-- Generator: Gravit.io --><svg xmlns="http://www.w3.org/2000/svg" xmlns:xlink="http://www.w3.org/1999/xlink" style="isolation:isolate" viewBox="258.395 950.153 1483.21 129.847" width="1483.21" height="129.847"><path d=" M 1488.795 1080 L 1488.795 1077.04 L 1495.294 1077.04 L 1495.294 1078.708 L 1498.167 1078.708 L 1498.167 1080 L 1488.795 1080 L 1488.795 1080 Z  M 511.205 1080 L 511.205 1077.04 L 504.706 1077.04 L 504.706 1078.708 L 501.833 1078.708 L 501.833 1080 L 511.205 1080 L 511.205 1080 Z  M 500.409 1080 L 500.409 1051.173 L 498.585 1051.173 L 498.585 1052.563 L 494.709 1052.563 L 494.709 1058.235 L 493.561 1058.235 L 493.561 1054.414 L 484.514 1054.414 L 484.514 1065.589 L 481.7 1065.589 L 481.7 1071.898 L 479.628 1071.898 L 479.628 1074.963 L 477.406 1074.963 L 477.406 1060.241 L 456.303 1060.241 L 456.303 1061.719 L 453.9 1061.719 L 453.9 1068.252 L 446.643 1068.252 L 446.643 1071.84 L 444.891 1071.84 L 444.891 1073.717 L 444.293 1073.717 L 444.293 1073.019 L 443.257 1073.019 L 443.257 1073.717 L 442.91 1073.717 L 442.91 1073.926 L 441.26 1073.926 L 441.26 1080 L 500.409 1080 L 500.409 1080 Z  M 440.144 1080 L 440.144 1076.941 L 433.645 1076.941 L 433.645 1078.609 L 430.909 1078.609 L 430.909 1072.518 L 430.177 1072.518 L 430.177 1074.963 L 426.69 1074.963 L 426.69 1071.898 L 424.618 1071.898 L 424.618 1065.589 L 421.803 1065.589 L 421.803 1054.414 L 412.757 1054.414 L 412.757 1058.235 L 411.609 1058.235 L 411.609 1052.563 L 407.732 1052.563 L 407.732 1051.173 L 405.909 1051.173 L 405.909 1061.523 L 402.659 1061.523 L 402.659 1060.34 L 381.556 1060.34 L 381.556 1061.818 L 379.153 1061.818 L 379.153 1068.351 L 371.896 1068.351 L 371.896 1071.939 L 370.144 1071.939 L 370.144 1073.816 L 369.546 1073.816 L 369.546 1073.118 L 368.51 1073.118 L 368.51 1073.816 L 368.163 1073.816 L 368.163 1074.024 L 366.513 1074.024 L 366.513 1080 L 440.144 1080 L 440.144 1080 Z  M 365.397 1080 L 365.397 1077.04 L 358.898 1077.04 L 358.898 1078.708 L 356.024 1078.708 L 356.024 1080 L 365.397 1080 L 365.397 1080 Z  M 355.159 1080 L 355.159 1072.518 L 354.427 1072.518 L 354.427 1074.963 L 350.94 1074.963 L 350.94 1071.898 L 348.868 1071.898 L 348.868 1065.589 L 346.053 1065.589 L 346.053 1054.414 L 337.007 1054.414 L 337.007 1058.235 L 335.859 1058.235 L 335.859 1052.563 L 331.982 1052.563 L 331.982 1051.173 L 331.659 1051.173 L 331.659 1046.549 L 328.618 1046.549 L 328.618 1045.759 L 327.475 1045.759 L 327.475 1047.471 L 324.057 1047.471 L 324.057 1061.523 L 322.589 1061.523 L 322.589 1057.851 L 323.149 1057.851 L 323.149 1057.318 L 322.786 1057.318 L 322.786 1056.877 L 321.221 1056.877 L 321.221 1057.318 L 320.356 1057.318 L 320.356 1054.403 L 317.521 1054.403 L 317.521 1055.779 L 315.572 1055.779 L 315.572 1056.786 L 313.82 1056.786 L 313.82 1057.318 L 312.389 1057.318 L 312.389 1057.851 L 313.302 1057.851 L 313.302 1061.523 L 306.29 1061.523 L 306.29 1067.769 L 305.029 1067.769 L 305.029 1060.241 L 283.927 1060.241 L 283.927 1061.719 L 281.523 1061.719 L 281.523 1068.252 L 274.266 1068.252 L 274.266 1071.84 L 272.514 1071.84 L 272.514 1073.717 L 271.916 1073.717 L 271.916 1073.019 L 270.88 1073.019 L 270.88 1073.717 L 270.533 1073.717 L 270.533 1073.926 L 268.883 1073.926 L 268.883 1080 L 355.159 1080 L 355.159 1080 Z  M 267.767 1080 L 267.767 1076.941 L 261.268 1076.941 L 261.268 1078.609 L 258.395 1078.609 L 258.395 1080 L 267.767 1080 L 267.767 1080 Z  M 1499.591 1080 L 1499.591 1051.173 L 1501.414 1051.173 L 1501.414 1052.563 L 1505.291 1052.563 L 1505.291 1058.235 L 1506.439 1058.235 L 1506.439 1054.414 L 1515.486 1054.414 L 1515.486 1065.589 L 1518.3 1065.589 L 1518.3 1071.898 L 1520.372 1071.898 L 1520.372 1074.963 L 1522.594 1074.963 L 1522.594 1060.241 L 1543.697 1060.241 L 1543.697 1061.719 L 1546.1 1061.719 L 1546.1 1068.252 L 1553.357 1068.252 L 1553.357 1071.84 L 1555.109 1071.84 L 1555.109 1073.717 L 1555.707 1073.717 L 1555.707 1073.019 L 1556.743 1073.019 L 1556.743 1073.717 L 1557.09 1073.717 L 1557.09 1073.926 L 1558.74 1073.926 L 1558.74 1080 L 1499.591 1080 L 1499.591 1080 Z  M 1559.856 1080 L 1559.856 1076.941 L 1566.355 1076.941 L 1566.355 1078.609 L 1569.091 1078.609 L 1569.091 1072.518 L 1569.823 1072.518 L 1569.823 1074.963 L 1573.31 1074.963 L 1573.31 1071.898 L 1575.382 1071.898 L 1575.382 1065.589 L 1578.197 1065.589 L 1578.197 1054.414 L 1587.243 1054.414 L 1587.243 1058.235 L 1588.391 1058.235 L 1588.391 1052.563 L 1592.268 1052.563 L 1592.268 1051.173 L 1594.091 1051.173 L 1594.091 1061.523 L 1597.341 1061.523 L 1597.341 1060.34 L 1618.444 1060.34 L 1618.444 1061.818 L 1620.847 1061.818 L 1620.847 1068.351 L 1628.104 1068.351 L 1628.104 1071.939 L 1629.856 1071.939 L 1629.856 1073.816 L 1630.454 1073.816 L 1630.454 1073.118 L 1631.49 1073.118 L 1631.49 1073.816 L 1631.837 1073.816 L 1631.837 1074.024 L 1633.487 1074.024 L 1633.487 1080 L 1559.856 1080 L 1559.856 1080 Z  M 1634.603 1080 L 1634.603 1077.04 L 1641.102 1077.04 L 1641.102 1078.708 L 1643.975 1078.708 L 1643.975 1080 L 1634.603 1080 L 1634.603 1080 Z  M 1644.841 1080 L 1644.841 1072.518 L 1645.573 1072.518 L 1645.573 1074.963 L 1649.06 1074.963 L 1649.06 1071.898 L 1651.132 1071.898 L 1651.132 1065.589 L 1653.947 1065.589 L 1653.947 1054.414 L 1662.993 1054.414 L 1662.993 1058.235 L 1664.141 1058.235 L 1664.141 1052.563 L 1668.018 1052.563 L 1668.018 1051.173 L 1668.341 1051.173 L 1668.341 1046.549 L 1671.382 1046.549 L 1671.382 1045.759 L 1672.525 1045.759 L 1672.525 1047.471 L 1675.943 1047.471 L 1675.943 1061.523 L 1677.411 1061.523 L 1677.411 1057.851 L 1676.851 1057.851 L 1676.851 1057.318 L 1677.214 1057.318 L 1677.214 1056.877 L 1678.779 1056.877 L 1678.779 1057.318 L 1679.643 1057.318 L 1679.643 1054.403 L 1682.479 1054.403 L 1682.479 1055.779 L 1684.428 1055.779 L 1684.428 1056.786 L 1686.18 1056.786 L 1686.18 1057.318 L 1687.611 1057.318 L 1687.611 1057.851 L 1686.698 1057.851 L 1686.698 1061.523 L 1693.71 1061.523 L 1693.71 1067.769 L 1694.971 1067.769 L 1694.971 1060.241 L 1716.073 1060.241 L 1716.073 1061.719 L 1718.476 1061.719 L 1718.476 1068.252 L 1725.734 1068.252 L 1725.734 1071.84 L 1727.486 1071.84 L 1727.486 1073.717 L 1728.084 1073.717 L 1728.084 1073.019 L 1729.12 1073.019 L 1729.12 1073.717 L 1729.467 1073.717 L 1729.467 1073.926 L 1731.117 1073.926 L 1731.117 1080 L 1644.841 1080 L 1644.841 1080 Z  M 1732.233 1080 L 1732.233 1076.941 L 1738.732 1076.941 L 1738.732 1078.609 L 1741.605 1078.609 L 1741.605 1080 L 1732.233 1080 L 1732.233 1080 Z  M 1452.5 1060.34 L 1452.5 1060.073 L 1449.637 1060.073 L 1449.637 1058.369 L 1446.764 1058.369 L 1446.764 1056.7 L 1440.264 1056.7 L 1440.264 1060.073 L 1439.148 1060.073 L 1439.148 1053.685 L 1437.498 1053.685 L 1437.498 1053.476 L 1437.151 1053.476 L 1437.151 1052.779 L 1436.115 1052.779 L 1436.115 1053.476 L 1435.517 1053.476 L 1435.517 1051.599 L 1433.765 1051.599 L 1433.765 1048.011 L 1426.507 1048.011 L 1426.507 1041.479 L 1424.104 1041.479 L 1424.104 1040 L 1402.999 1040 L 1402.999 1047.529 L 1401.738 1047.529 L 1401.738 1041.283 L 1394.726 1041.283 L 1394.726 1037.611 L 1395.64 1037.611 L 1395.64 1037.077 L 1394.208 1037.077 L 1394.208 1036.545 L 1392.457 1036.545 L 1392.457 1035.538 L 1390.507 1035.538 L 1390.507 1034.163 L 1387.671 1034.163 L 1387.671 1037.077 L 1386.806 1037.077 L 1386.806 1036.636 L 1385.241 1036.636 L 1385.241 1037.077 L 1384.878 1037.077 L 1384.878 1037.611 L 1385.439 1037.611 L 1385.439 1041.283 L 1383.97 1041.283 L 1383.97 1027.23 L 1380.552 1027.23 L 1380.552 1025.519 L 1379.409 1025.519 L 1379.409 1026.309 L 1376.368 1026.309 L 1376.368 1030.932 L 1376.045 1030.932 L 1376.045 1032.322 L 1372.168 1032.322 L 1372.168 1037.994 L 1371.019 1037.994 L 1371.019 1034.174 L 1361.973 1034.174 L 1361.973 1045.349 L 1359.158 1045.349 L 1359.158 1051.657 L 1357.086 1051.657 L 1357.086 1054.722 L 1353.598 1054.722 L 1353.598 1052.277 L 1352.866 1052.277 L 1352.866 1060.172 L 1352.001 1060.172 L 1352.001 1058.468 L 1349.127 1058.468 L 1349.127 1056.799 L 1342.628 1056.799 L 1342.628 1060.172 L 1341.512 1060.172 L 1341.512 1053.784 L 1339.862 1053.784 L 1339.862 1053.575 L 1339.514 1053.575 L 1339.514 1052.877 L 1338.478 1052.877 L 1338.478 1053.575 L 1337.88 1053.575 L 1337.88 1051.698 L 1336.128 1051.698 L 1336.128 1048.11 L 1328.87 1048.11 L 1328.87 1041.578 L 1326.467 1041.578 L 1326.467 1040.099 L 1305.363 1040.099 L 1305.363 1041.283 L 1302.113 1041.283 L 1302.113 1030.932 L 1300.289 1030.932 L 1300.289 1032.322 L 1296.412 1032.322 L 1296.412 1037.994 L 1295.264 1037.994 L 1295.264 1034.174 L 1286.217 1034.174 L 1286.217 1045.349 L 1283.402 1045.349 L 1283.402 1051.657 L 1281.33 1051.657 L 1281.33 1054.722 L 1277.843 1054.722 L 1277.843 1052.277 L 1277.111 1052.277 L 1277.111 1058.369 L 1274.375 1058.369 L 1274.375 1056.7 L 1267.876 1056.7 L 1267.876 1060.073 L 1266.759 1060.073 L 1266.759 1053.685 L 1265.109 1053.685 L 1265.109 1053.476 L 1264.762 1053.476 L 1264.762 1052.779 L 1263.726 1052.779 L 1263.726 1053.476 L 1263.128 1053.476 L 1263.128 1051.599 L 1261.376 1051.599 L 1261.376 1048.011 L 1254.118 1048.011 L 1254.118 1041.479 L 1251.715 1041.479 L 1251.715 1040 L 1230.611 1040 L 1230.611 1054.722 L 1228.388 1054.722 L 1228.388 1051.657 L 1226.316 1051.657 L 1226.316 1045.349 L 1223.502 1045.349 L 1223.502 1034.174 L 1214.455 1034.174 L 1214.455 1037.994 L 1213.307 1037.994 L 1213.307 1032.322 L 1209.43 1032.322 L 1209.43 1030.932 L 1207.606 1030.932 L 1207.606 1060.172 L 1206.182 1060.172 L 1206.182 1058.468 L 1203.308 1058.468 L 1203.308 1056.799 L 1196.809 1056.799 L 1196.809 1060.172 L 1195.693 1060.172 L 1195.693 1053.784 L 1194.043 1053.784 L 1194.043 1053.575 L 1193.695 1053.575 L 1193.695 1052.877 L 1192.66 1052.877 L 1192.66 1053.575 L 1192.061 1053.575 L 1192.061 1051.698 L 1190.309 1051.698 L 1190.309 1048.11 L 1183.051 1048.11 L 1183.051 1041.578 L 1180.648 1041.578 L 1180.648 1040.099 L 1157.022 1040.099 L 1157.022 975.534 L 1155.591 975.534 L 1155.591 972.889 L 1152.173 972.889 L 1152.173 967.374 L 1149.059 967.374 L 1149.059 964.763 L 1145.887 964.763 L 1145.887 959.253 L 1145.246 959.253 L 1145.246 958.134 L 1143.083 958.134 L 1143.083 957.512 L 1144.6 957.512 L 1144.6 957.015 L 1143.083 957.015 L 1143.083 954.819 L 1142.725 954.819 L 1142.725 957.015 L 1141.208 957.015 L 1141.208 957.512 L 1142.725 957.512 L 1142.725 958.134 L 1140.568 958.134 L 1140.568 959.253 L 1139.926 959.253 L 1139.926 964.763 L 1136.749 964.763 L 1136.749 967.374 L 1133.641 967.374 L 1133.641 972.889 L 1130.223 972.889 L 1130.223 975.534 L 1128.786 975.534 L 1128.786 1015.661 L 1127.889 1015.661 L 1127.889 1014.451 L 1120.53 1014.451 L 1120.53 976.164 L 1120.53 975.676 L 1110.896 975.676 L 1110.896 976.164 L 1110.014 976.164 L 1110.014 975.676 L 1103.424 975.676 L 1103.424 976.164 L 1102.543 976.164 L 1102.543 975.676 L 1092.903 975.676 L 1092.903 976.164 L 1092.903 1015.661 L 1090.367 1015.661 L 1090.367 1060.172 L 1089.074 1060.172 L 1089.074 1044.253 L 1087.632 1044.253 L 1087.632 1019.027 L 1085.677 1019.027 L 1085.677 1018.056 L 1070.922 1018.056 L 1070.922 1012.176 L 1064.332 1012.176 L 1064.332 1011.537 L 1064.556 1011.537 L 1064.556 1010.243 L 1064.332 1010.243 L 1064.332 1009.505 L 1064.556 1009.505 L 1064.556 1008.209 L 1064.332 1008.209 L 1064.332 1007.064 L 1062.708 1007.064 L 1062.708 1006.849 L 1062.606 1006.849 L 1062.606 1006.451 L 1062.708 1006.451 L 1062.708 1006.111 L 1062.184 1006.111 L 1062.184 1006.451 L 1062.286 1006.451 L 1062.286 1006.849 L 1062.184 1006.849 L 1062.184 1007.064 L 1061.682 1007.064 L 1061.682 1006.849 L 1061.581 1006.849 L 1061.581 1006.451 L 1061.682 1006.451 L 1061.682 1006.111 L 1061.159 1006.111 L 1061.159 1006.451 L 1061.256 1006.451 L 1061.256 1006.849 L 1061.159 1006.849 L 1061.159 1007.064 L 1058.334 1007.064 L 1058.334 1008.209 L 1058.104 1008.209 L 1058.104 1009.505 L 1058.334 1009.505 L 1058.334 1010.243 L 1058.104 1010.243 L 1058.104 1011.537 L 1058.334 1011.537 L 1058.334 1012.176 L 1051.6 1012.176 L 1051.6 1041.27 L 1048.924 1041.27 L 1048.924 1053.327 L 1047.749 1053.327 L 1047.749 1060.172 L 1045.751 1060.172 L 1045.751 1058.483 L 1046.184 1058.483 L 1046.184 1057.914 L 1045.751 1057.914 L 1045.751 1057.271 L 1046.184 1057.271 L 1046.184 1056.705 L 1045.751 1056.705 L 1045.751 1056.064 L 1046.184 1056.064 L 1046.184 1055.493 L 1045.751 1055.493 L 1045.751 1054.851 L 1046.184 1054.851 L 1046.184 1054.283 L 1045.751 1054.283 L 1045.751 1053.644 L 1046.184 1053.644 L 1046.184 1053.071 L 1045.751 1053.071 L 1045.751 1052.43 L 1046.184 1052.43 L 1046.184 1051.86 L 1045.751 1051.86 L 1045.751 1051.22 L 1046.184 1051.22 L 1046.184 1050.65 L 1045.751 1050.65 L 1045.751 1050.011 L 1046.184 1050.011 L 1046.184 1049.441 L 1045.751 1049.441 L 1045.751 1048.831 L 1044.337 1048.831 L 1044.337 1047.878 L 1044.037 1047.878 L 1044.037 1048.831 L 1043.29 1048.831 L 1043.29 1048.246 L 1042.462 1048.246 L 1042.462 1034.664 L 1043.108 1034.664 L 1043.108 1027.947 L 1042.462 1027.947 L 1042.462 1022.314 L 1036.619 1022.314 L 1036.619 1021.75 L 1036.822 1021.75 L 1036.822 1020.603 L 1036.619 1020.603 L 1036.619 1019.944 L 1036.822 1019.944 L 1036.822 1018.801 L 1036.619 1018.801 L 1036.619 1017.783 L 1035.182 1017.783 L 1035.182 1017.591 L 1035.092 1017.591 L 1035.092 1017.239 L 1035.182 1017.239 L 1035.182 1016.935 L 1034.713 1016.935 L 1034.713 1017.239 L 1034.803 1017.239 L 1034.803 1017.591 L 1034.713 1017.591 L 1034.713 1017.783 L 1034.27 1017.783 L 1034.27 1017.591 L 1034.179 1017.591 L 1034.179 1017.239 L 1034.27 1017.239 L 1034.27 1016.935 L 1033.805 1016.935 L 1033.805 1017.239 L 1033.896 1017.239 L 1033.896 1017.591 L 1033.805 1017.591 L 1033.805 1017.783 L 1031.3 1017.783 L 1031.3 1018.801 L 1031.097 1018.801 L 1031.097 1019.944 L 1031.3 1019.944 L 1031.3 1020.603 L 1031.097 1020.603 L 1031.097 1021.75 L 1031.3 1021.75 L 1031.3 1022.314 L 1025.335 1022.314 L 1025.335 1027.015 L 1022.862 1027.015 L 1022.862 1027.393 L 1022.258 1027.393 L 1022.258 1022.955 L 1020.544 1022.955 L 1020.544 1021.935 L 1020.373 1021.935 L 1020.373 1022.697 L 1019.412 1022.697 L 1019.412 1022.54 L 1018.211 1022.54 L 1018.211 1022.955 L 1017.548 1022.955 L 1017.548 1025.6 L 1013.783 1025.6 L 1013.783 1026.711 L 1013.527 1026.711 L 1013.527 1027.269 L 1012.144 1027.269 L 1012.144 1029.983 L 1012.144 1033.683 L 1011.636 1033.683 L 1011.636 1034.255 L 1010.344 1034.255 L 1010.344 1033.274 L 1009.757 1033.274 L 1009.757 1032.852 L 1009.703 1032.852 L 1009.703 1032.66 L 1009.148 1032.66 L 1009.148 1032.17 L 1009.014 1032.17 L 1009.014 1032.66 L 1007.722 1032.66 L 1007.722 1032.852 L 1006.846 1032.852 L 1006.846 1033.274 L 1005.463 1033.274 L 1005.463 1029.983 L 1005.463 1027.269 L 1004.085 1027.269 L 1004.085 1026.711 L 1003.823 1026.711 L 1003.823 1025.6 L 1000.058 1025.6 L 1000.058 1022.955 L 999.396 1022.955 L 999.396 1022.54 L 998.199 1022.54 L 998.199 1022.697 L 997.233 1022.697 L 997.233 1021.935 L 997.056 1021.935 L 997.056 1022.955 L 995.348 1022.955 L 995.348 1027.393 L 994.749 1027.393 L 994.749 1027.015 L 992.277 1027.015 L 992.277 1022.314 L 986.306 1022.314 L 986.306 1021.75 L 986.509 1021.75 L 986.509 1020.603 L 986.306 1020.603 L 986.306 1019.944 L 986.509 1019.944 L 986.509 1018.801 L 986.306 1018.801 L 986.306 1017.783 L 983.802 1017.783 L 983.802 1017.591 L 983.71 1017.591 L 983.71 1017.239 L 983.802 1017.239 L 983.802 1016.935 L 983.337 1016.935 L 983.337 1017.239 L 983.428 1017.239 L 983.428 1017.591 L 983.337 1017.591 L 983.337 1017.783 L 982.894 1017.783 L 982.894 1017.591 L 982.803 1017.591 L 982.803 1017.239 L 982.894 1017.239 L 982.894 1016.935 L 982.429 1016.935 L 982.429 1017.239 L 982.514 1017.239 L 982.514 1017.591 L 982.429 1017.591 L 982.429 1017.783 L 980.987 1017.783 L 980.987 1018.801 L 980.784 1018.801 L 980.784 1019.944 L 980.987 1019.944 L 980.987 1020.603 L 980.784 1020.603 L 980.784 1021.75 L 980.987 1021.75 L 980.987 1022.314 L 975.145 1022.314 L 975.145 1027.947 L 974.498 1027.947 L 974.498 1034.664 L 975.145 1034.664 L 975.145 1052.019 L 974.37 1052.019 L 974.37 1050.344 L 972.592 1050.344 L 972.592 1050.103 L 972.976 1050.103 L 972.976 1049.111 L 972.592 1049.111 L 972.592 1048.704 L 972.976 1048.704 L 972.976 1047.953 L 971.887 1047.953 L 971.887 977.148 L 972.442 977.148 L 972.442 975.03 L 971.117 975.03 L 971.117 973.024 L 970.978 973.024 L 970.978 972.83 L 970.776 972.83 L 970.375 972.83 L 969.884 972.83 L 969.884 972.361 L 969.489 972.361 L 969.489 972.195 L 969.056 972.195 L 969.056 971.92 L 967.4 971.92 L 967.4 972.83 L 966.925 972.83 L 966.925 973.024 L 964.853 973.024 L 964.853 973.368 L 963.625 973.272 L 963.625 973.593 L 963.08 973.551 L 962.829 955.415 L 962.589 973.513 L 962.3 973.49 L 962.3 972.529 L 962.028 972.529 L 962.028 973.469 L 961.617 973.438 L 961.617 973.958 L 961.034 973.958 L 961.034 973.711 L 960.939 973.711 L 960.939 972.804 L 960.661 972.804 L 960.661 973.711 L 959.609 973.711 L 959.609 974.124 L 959.406 974.124 L 959.406 973.19 L 959.165 973.19 L 959.165 974.124 L 958.861 974.124 L 958.861 974.372 L 955.587 974.372 L 955.587 974.727 L 954.327 974.727 L 954.327 975.207 L 954.156 975.207 L 954.156 975.03 L 953.376 975.03 L 953.376 976.982 L 953.654 976.982 L 953.654 1047.953 L 952.565 1047.953 L 952.565 1048.704 L 952.944 1048.704 L 952.944 1048.969 L 952.18 1048.969 L 952.18 1046.714 L 946.514 1046.714 L 946.514 1053.116 L 945.515 1053.116 L 945.515 1038.924 L 944.506 1038.924 L 944.506 969.094 L 941.878 965.665 L 941.878 963.93 L 941.44 963.93 L 941.285 963.729 L 941.285 963.422 L 941.05 963.422 L 938.385 959.95 L 937.75 959.95 L 937.75 959.559 L 937.443 959.559 C 937.353 958.449 936.307 957.724 935.24 957.845 L 935.24 957.845 L 935.24 955.645 L 935.87 955.401 L 935.87 955.252 L 935.24 955.252 L 935.24 954.597 L 935.705 954.597 L 935.705 954.432 L 934.747 954.133 C 935.31 953.809 934.7 953.234 934.231 953.415 L 934.231 953.415 L 934.231 952.269 L 934.861 952.023 L 934.861 951.875 L 934.231 951.875 L 934.231 951.22 L 934.695 951.22 L 934.695 951.057 L 933.735 950.755 C 935.134 949.952 931.741 949.953 933.139 950.755 L 933.139 950.755 L 932.18 951.057 L 932.18 951.22 L 932.644 951.22 L 932.644 951.358 L 931.582 951.358 L 931.582 951.177 L 931.256 951.177 L 931.256 950.995 L 929.114 950.995 L 929.114 951.177 L 928.49 951.177 L 928.49 950.995 L 926.348 950.995 L 926.348 951.177 L 926.017 951.177 L 926.017 951.358 L 924.954 951.358 L 924.954 951.22 L 925.418 951.22 L 925.418 951.057 L 924.461 950.756 C 925.87 949.953 922.457 949.955 923.866 950.756 L 923.866 950.756 L 922.909 951.057 L 922.909 951.22 L 923.368 951.22 L 923.368 951.875 L 922.743 951.875 L 922.743 952.023 L 923.368 952.266 L 923.368 956.448 L 922.914 956.448 L 922.914 956.864 L 923.037 956.864 L 923.037 957.475 L 922.412 957.475 L 922.412 957.854 C 921.33 957.698 920.251 958.43 920.16 959.559 L 920.16 959.559 L 919.848 959.559 L 919.848 961.898 L 918.823 961.898 L 918.823 963.422 L 916.313 963.422 L 916.313 963.93 L 915.72 963.93 L 915.72 1026.309 L 911.982 1026.309 L 911.982 1025.519 L 910.839 1025.519 L 910.839 1027.23 L 907.421 1027.23 L 907.421 1041.283 L 905.952 1041.283 L 905.952 1037.611 L 906.513 1037.611 L 906.513 1037.077 L 906.15 1037.077 L 906.15 1036.636 L 904.585 1036.636 L 904.585 1037.077 L 903.72 1037.077 L 903.72 1034.163 L 900.884 1034.163 L 900.884 1035.538 L 898.935 1035.538 L 898.935 1036.545 L 897.183 1036.545 L 897.183 1037.077 L 895.752 1037.077 L 895.752 1037.611 L 896.665 1037.611 L 896.665 1041.283 L 889.653 1041.283 L 889.653 1047.529 L 888.163 1047.529 L 888.163 1044.083 L 885.52 1044.083 L 885.52 1018.952 L 866.945 1017.768 L 863.196 1018.952 L 863.196 1043.399 L 862.352 1043.399 L 862.352 974.113 L 858.619 972.675 L 854.107 972.675 L 854.107 972.305 L 852.691 972.305 L 852.691 971.296 L 852.462 971.296 L 852.462 972.305 L 852.44 972.305 L 852.44 972.675 L 851.826 972.675 L 851.826 972.213 L 851.142 972.213 L 851.142 972.675 L 851.121 972.675 L 851.121 970.669 L 850.961 970.669 L 850.961 972.675 L 850.357 972.675 L 850.357 973.201 L 844.36 973.201 L 844.36 974.113 L 838.528 974.113 L 838.528 976.993 L 837.391 978.293 L 837.391 999.718 L 836.258 999.718 L 836.258 1021.011 L 834.795 1021.011 L 834.795 1030.932 L 832.995 1030.932 L 832.995 1007.52 L 827.617 1007.52 L 817.353 1010.019 L 817.353 1030.932 L 812.696 1030.932 L 812.696 1032.322 L 808.819 1032.322 L 808.819 1037.994 L 807.67 1037.994 L 807.67 1034.174 L 798.624 1034.174 L 798.624 1045.349 L 795.809 1045.349 L 795.809 1051.657 L 793.737 1051.657 L 793.737 1054.722 L 790.264 1054.722 L 790.264 1044.083 L 788.123 1044.083 L 788.123 1047.529 L 786.633 1047.529 L 786.633 1041.283 L 779.621 1041.283 L 779.621 1037.611 L 780.534 1037.611 L 780.534 1037.077 L 779.102 1037.077 L 779.102 1036.545 L 777.351 1036.545 L 777.351 1035.538 L 775.402 1035.538 L 775.402 1034.163 L 772.566 1034.163 L 772.566 1037.077 L 771.701 1037.077 L 771.701 1036.636 L 770.136 1036.636 L 770.136 1037.077 L 769.773 1037.077 L 769.773 1037.611 L 770.333 1037.611 L 770.333 1041.283 L 768.865 1041.283 L 768.865 1027.23 L 765.447 1027.23 L 765.447 1025.519 L 764.304 1025.519 L 764.304 1026.309 L 761.262 1026.309 L 761.262 1054.722 L 758.543 1054.722 L 758.543 1051.657 L 756.471 1051.657 L 756.471 1045.349 L 753.656 1045.349 L 753.656 1034.174 L 744.61 1034.174 L 744.61 1037.994 L 743.461 1037.994 L 743.461 1032.322 L 739.584 1032.322 L 739.584 1030.932 L 737.761 1030.932 L 737.761 1060.172 L 736.895 1060.172 L 736.895 1058.468 L 734.022 1058.468 L 734.022 1056.799 L 727.522 1056.799 L 727.522 1060.172 L 726.406 1060.172 L 726.406 1053.784 L 724.756 1053.784 L 724.756 1053.575 L 724.409 1053.575 L 724.409 1052.877 L 723.373 1052.877 L 723.373 1053.575 L 722.775 1053.575 L 722.775 1051.698 L 721.023 1051.698 L 721.023 1048.11 L 713.765 1048.11 L 713.765 1041.578 L 711.361 1041.578 L 711.361 1040.099 L 690.257 1040.099 L 690.257 1041.283 L 687.007 1041.283 L 687.007 1030.932 L 685.184 1030.932 L 685.184 1032.322 L 681.307 1032.322 L 681.307 1037.994 L 680.158 1037.994 L 680.158 1034.174 L 671.111 1034.174 L 671.111 1045.349 L 668.297 1045.349 L 668.297 1051.657 L 666.225 1051.657 L 666.225 1054.722 L 662.737 1054.722 L 662.737 1052.277 L 662.005 1052.277 L 662.005 1058.369 L 659.269 1058.369 L 659.269 1056.7 L 652.77 1056.7 L 652.77 1060.073 L 651.654 1060.073 L 651.654 1053.685 L 650.004 1053.685 L 650.004 1053.476 L 649.657 1053.476 L 649.657 1052.779 L 648.621 1052.779 L 648.621 1053.476 L 648.022 1053.476 L 648.022 1051.599 L 646.27 1051.599 L 646.27 1048.011 L 639.013 1048.011 L 639.013 1041.479 L 636.609 1041.479 L 636.609 1040 L 615.505 1040 L 615.505 1054.722 L 613.283 1054.722 L 613.283 1051.657 L 611.211 1051.657 L 611.211 1045.349 L 608.396 1045.349 L 608.396 1034.174 L 599.349 1034.174 L 599.349 1037.994 L 598.201 1037.994 L 598.201 1032.322 L 594.324 1032.322 L 594.324 1030.932 L 592.5 1030.932 L 592.5 1040 L 572.896 1040 L 572.896 1041.479 L 570.493 1041.479 L 570.493 1048.011 L 563.235 1048.011 L 563.235 1051.599 L 561.483 1051.599 L 561.483 1053.476 L 560.885 1053.476 L 560.885 1052.779 L 559.849 1052.779 L 559.849 1053.476 L 559.502 1053.476 L 559.502 1053.685 L 557.852 1053.685 L 557.852 1060.073 L 556.736 1060.073 L 556.736 1056.7 L 550.236 1056.7 L 550.236 1058.369 L 547.363 1058.369 L 547.363 1060.073 L 544.5 1060.073 L 544.5 1060.34 L 527.365 1060.34 L 527.365 1061.818 L 524.962 1061.818 L 524.962 1068.351 L 517.704 1068.351 L 517.704 1071.939 L 515.952 1071.939 L 515.952 1073.816 L 515.354 1073.816 L 515.354 1073.118 L 514.319 1073.118 L 514.319 1073.816 L 513.971 1073.816 L 513.971 1074.024 L 512.321 1074.024 L 512.321 1080 L 549.5 1080 L 549.5 1079.901 L 592.5 1079.901 L 592.5 1080 L 617.502 1080 L 617.502 1079.901 L 662.005 1079.901 L 662.005 1080 L 686.007 1080 L 687.007 1080 L 690.257 1080 L 691.007 1080 L 737.761 1080 L 739.758 1080 L 761.262 1080 L 762.762 1080 L 789.517 1080 L 790.264 1080 L 1207.606 1080 L 1209.044 1080 L 1232.608 1080 L 1232.608 1079.901 L 1277.111 1079.901 L 1277.111 1080 L 1301.113 1080 L 1302.113 1080 L 1305.363 1080 L 1306.113 1080 L 1352.866 1080 L 1354.863 1080 L 1376.368 1080 L 1377.868 1080 L 1405.37 1080 L 1405.37 1079.901 L 1450.5 1079.901 L 1450.5 1080 L 1487.679 1080 L 1487.679 1080 L 1487.679 1074.024 L 1486.029 1074.024 L 1486.029 1073.816 L 1485.681 1073.816 L 1485.681 1073.118 L 1484.646 1073.118 L 1484.646 1073.816 L 1484.048 1073.816 L 1484.048 1071.939 L 1482.296 1071.939 L 1482.296 1068.351 L 1475.038 1068.351 L 1475.038 1061.818 L 1472.635 1061.818 L 1472.635 1060.34 L 1452.5 1060.34 Z " fill-rule="evenodd" fill="rgb(46,46,46)"/></svg>