<?xml version="1.0" standalone="no"?><!-- Generator: Gravit.io --><svg xmlns="http://www.w3.org/2000/svg" xmlns:xlink="http://www.w3.org/1999/xlink" style="isolation:isolate" viewBox="1010 750.076 50 50" width="50" height="50"><path d=" M 1049.251 779.69 C 1049.971 779.69 1050.658 779.825 1051.318 780.093 C 1051.976 780.362 1052.558 780.749 1053.063 781.252 L 1058.437 786.623 C 1058.94 787.127 1059.33 787.709 1059.598 788.368 C 1059.865 789.023 1060.002 789.725 1060 790.432 C 1060 791.148 1059.867 791.835 1059.596 792.493 C 1059.331 793.147 1058.937 793.742 1058.437 794.241 C 1057.605 795.089 1056.758 795.923 1055.897 796.741 C 1055.174 797.433 1054.38 798.047 1053.528 798.572 C 1052.685 799.079 1051.771 799.458 1050.816 799.694 C 1049.823 799.948 1048.627 800.076 1047.225 800.076 C 1045.19 800.076 1043.097 799.757 1040.948 799.124 C 1038.728 798.46 1036.58 797.577 1034.536 796.487 C 1032.347 795.323 1030.256 793.984 1028.284 792.484 C 1024.194 789.377 1020.557 785.716 1017.477 781.607 C 1015.989 779.634 1014.665 777.544 1013.517 775.357 C 1012.448 773.327 1011.582 771.197 1010.93 768.997 C 1010.311 766.882 1010 764.831 1010 762.844 C 1010 761.445 1010.128 760.252 1010.379 759.267 C 1010.618 758.313 1010.996 757.4 1011.502 756.558 C 1012.024 755.704 1012.639 754.91 1013.335 754.19 C 1014.058 753.433 1014.895 752.591 1015.838 751.663 C 1016.344 751.158 1016.921 750.769 1017.573 750.49 C 1018.23 750.213 1018.936 750.073 1019.649 750.077 C 1021.079 750.079 1022.45 750.65 1023.459 751.663 L 1028.833 757.035 C 1029.336 757.538 1029.724 758.122 1029.992 758.779 C 1030.26 759.434 1030.397 760.136 1030.396 760.843 C 1030.396 761.559 1030.273 762.199 1030.027 762.76 C 1029.784 763.321 1029.484 763.829 1029.126 764.285 C 1028.771 764.737 1028.374 765.154 1027.94 765.53 C 1027.508 765.904 1027.113 766.27 1026.756 766.628 C 1026.419 766.96 1026.117 767.324 1025.852 767.715 C 1025.608 768.08 1025.484 768.476 1025.484 768.899 C 1025.484 769.518 1025.705 770.047 1026.145 770.488 L 1039.604 783.941 C 1040.043 784.379 1040.573 784.6 1041.192 784.6 C 1041.616 784.6 1042.011 784.477 1042.38 784.232 C 1042.746 783.988 1043.106 783.688 1043.464 783.33 C 1043.822 782.973 1044.188 782.576 1044.564 782.145 C 1044.937 781.712 1045.353 781.321 1045.809 780.961 C 1046.265 780.602 1046.774 780.3 1047.336 780.058 C 1047.899 779.815 1048.535 779.69 1049.253 779.69 L 1049.251 779.69 Z  M 1047.225 796.952 C 1048.399 796.952 1049.381 796.839 1050.171 796.62 C 1050.927 796.415 1051.648 796.094 1052.306 795.668 C 1052.941 795.253 1053.558 794.739 1054.162 794.12 C 1054.765 793.501 1055.456 792.801 1056.239 792.019 C 1056.677 791.581 1056.898 791.051 1056.898 790.432 C 1056.898 790.139 1056.781 789.792 1056.546 789.392 C 1056.276 788.949 1055.969 788.529 1055.628 788.137 C 1055.255 787.698 1054.835 787.244 1054.372 786.78 C 1053.924 786.332 1053.468 785.893 1053.004 785.463 C 1052.59 785.079 1052.175 784.697 1051.758 784.316 C 1051.377 783.965 1051.079 783.685 1050.865 783.474 C 1050.442 783.042 1049.86 782.803 1049.255 782.815 C 1048.83 782.815 1048.439 782.938 1048.081 783.183 C 1047.723 783.427 1047.364 783.727 1047.007 784.084 C 1046.65 784.442 1046.281 784.837 1045.897 785.268 C 1045.513 785.7 1045.092 786.097 1044.637 786.453 C 1044.17 786.819 1043.657 787.123 1043.111 787.356 C 1042.55 787.6 1041.911 787.725 1041.194 787.725 C 1039.767 787.725 1038.398 787.163 1037.383 786.161 L 1023.924 772.708 C 1023.424 772.21 1023.029 771.617 1022.764 770.963 C 1022.497 770.308 1022.36 769.607 1022.361 768.899 C 1022.361 768.185 1022.484 767.543 1022.729 766.982 C 1022.973 766.421 1023.273 765.913 1023.631 765.457 C 1023.989 765.001 1024.385 764.58 1024.817 764.199 C 1025.249 763.817 1025.642 763.445 1026.001 763.088 C 1026.361 762.73 1026.661 762.372 1026.905 762.015 C 1027.149 761.659 1027.273 761.266 1027.273 760.843 C 1027.273 760.208 1027.052 759.67 1026.612 759.23 C 1026.325 758.939 1026.044 758.642 1025.77 758.339 L 1024.622 757.094 C 1024.191 756.631 1023.751 756.175 1023.303 755.728 C 1022.868 755.291 1022.416 754.871 1021.947 754.471 C 1021.554 754.132 1021.133 753.826 1020.689 753.557 C 1020.291 753.321 1019.945 753.203 1019.652 753.203 C 1019.033 753.203 1018.503 753.422 1018.063 753.862 C 1017.282 754.643 1016.586 755.335 1015.975 755.937 C 1015.395 756.503 1014.871 757.124 1014.412 757.792 C 1013.971 758.446 1013.641 759.168 1013.435 759.93 C 1013.216 760.719 1013.105 761.692 1013.105 762.847 C 1013.105 764.669 1013.403 766.549 1013.998 768.487 C 1014.593 770.424 1015.416 772.362 1016.465 774.298 C 1017.556 776.3 1018.801 778.214 1020.189 780.023 C 1021.626 781.908 1023.193 783.69 1024.878 785.357 C 1026.559 787.023 1028.35 788.573 1030.24 789.997 C 1032.048 791.366 1033.959 792.594 1035.955 793.671 C 1037.792 794.665 1039.723 795.474 1041.72 796.087 C 1043.632 796.666 1045.465 796.952 1047.225 796.952 L 1047.225 796.952 Z " fill-rule="evenodd" fill="rgb(255,0,0)"/></svg>