<?xml version="1.0" standalone="no"?><!-- Generator: Gravit.io --><svg xmlns="http://www.w3.org/2000/svg" xmlns:xlink="http://www.w3.org/1999/xlink" style="isolation:isolate" viewBox="1850 1030 40 40" width="40" height="40"><g id="v_CXA"><path d=" M 1850 1050 C 1850 1038.962 1858.962 1030 1870 1030 C 1881.038 1030 1890 1038.962 1890 1050 C 1890 1061.038 1881.038 1070 1870 1070 C 1858.962 1070 1850 1061.038 1850 1050 Z " fill="rgb(46,46,46)"/><path d=" M 1856.419 1050.265 C 1856.419 1042.555 1862.678 1036.295 1870.389 1036.295 C 1878.099 1036.295 1884.358 1042.555 1884.358 1050.265 C 1884.358 1057.975 1878.099 1064.235 1870.389 1064.235 C 1862.678 1064.235 1856.419 1057.975 1856.419 1050.265 Z " fill="rgb(255,255,255)"/><path d=" M 1871.882 1034.308 L 1871.638 1034.283 L 1871.822 1032.435 L 1872.066 1032.46 L 1871.882 1034.308 Z  M 1872.542 1034.396 L 1872.309 1034.361 L 1872.584 1032.525 L 1872.833 1032.562 L 1873.582 1034.148 L 1873.798 1032.706 L 1874.031 1032.741 L 1873.756 1034.578 L 1873.507 1034.54 L 1872.758 1032.953 L 1872.542 1034.396 Z  M 1874.839 1034.924 L 1874.604 1034.853 L 1875.08 1033.286 L 1874.494 1033.108 L 1874.558 1032.898 L 1875.966 1033.326 L 1875.903 1033.536 L 1875.315 1033.357 L 1874.839 1034.924 Z  M 1876.949 1035.722 L 1875.668 1035.192 L 1876.378 1033.476 L 1877.619 1033.989 L 1877.535 1034.192 L 1876.521 1033.772 L 1876.304 1034.298 L 1877.253 1034.691 L 1877.17 1034.892 L 1876.221 1034.499 L 1875.979 1035.084 L 1877.033 1035.519 L 1876.949 1035.722 Z  M 1877.471 1035.997 L 1877.254 1035.881 L 1878.126 1034.242 L 1878.853 1034.628 L 1878.853 1034.628 Q 1879.072 1034.745 1879.163 1034.85 L 1879.163 1034.85 L 1879.163 1034.85 Q 1879.253 1034.955 1879.262 1035.103 L 1879.262 1035.103 L 1879.262 1035.103 Q 1879.271 1035.251 1879.199 1035.386 L 1879.199 1035.386 L 1879.199 1035.386 Q 1879.106 1035.561 1878.93 1035.62 L 1878.93 1035.62 L 1878.93 1035.62 Q 1878.753 1035.68 1878.5 1035.587 L 1878.5 1035.587 L 1878.5 1035.587 Q 1878.564 1035.674 1878.587 1035.738 L 1878.587 1035.738 L 1878.587 1035.738 Q 1878.636 1035.876 1878.651 1036.052 L 1878.651 1036.052 L 1878.699 1036.65 L 1878.426 1036.505 L 1878.391 1036.048 L 1878.391 1036.048 Q 1878.374 1035.85 1878.354 1035.739 L 1878.354 1035.739 L 1878.354 1035.739 Q 1878.334 1035.628 1878.302 1035.571 L 1878.302 1035.571 L 1878.302 1035.571 Q 1878.27 1035.513 1878.227 1035.474 L 1878.227 1035.474 L 1878.227 1035.474 Q 1878.194 1035.447 1878.11 1035.402 L 1878.11 1035.402 L 1877.858 1035.268 L 1877.471 1035.997 Z  M 1878.247 1034.538 L 1877.958 1035.081 L 1878.425 1035.329 L 1878.425 1035.329 Q 1878.573 1035.408 1878.674 1035.422 L 1878.674 1035.422 L 1878.674 1035.422 Q 1878.774 1035.436 1878.853 1035.391 L 1878.853 1035.391 L 1878.853 1035.391 Q 1878.933 1035.347 1878.975 1035.267 L 1878.975 1035.267 L 1878.975 1035.267 Q 1879.037 1035.151 1878.993 1035.031 L 1878.993 1035.031 L 1878.993 1035.031 Q 1878.948 1034.911 1878.766 1034.814 L 1878.766 1034.814 L 1878.247 1034.538 Z  M 1879.069 1036.94 L 1878.873 1036.81 L 1879.9 1035.263 L 1880.11 1035.402 L 1880.116 1037.156 L 1880.922 1035.942 L 1881.119 1036.072 L 1880.092 1037.619 L 1879.882 1037.48 L 1879.876 1035.724 L 1879.069 1036.94 Z  M 1880.434 1037.948 L 1880.24 1037.774 L 1882.013 1036.871 L 1882.209 1037.048 L 1881.532 1038.937 L 1881.324 1038.749 L 1881.539 1038.186 L 1880.962 1037.667 L 1880.434 1037.948 Z  M 1881.665 1037.297 L 1881.149 1037.566 L 1881.617 1037.987 L 1881.817 1037.475 L 1881.817 1037.475 Q 1881.907 1037.241 1881.976 1037.1 L 1881.976 1037.1 L 1881.976 1037.1 Q 1881.83 1037.209 1881.665 1037.297 L 1881.665 1037.297 Z  M 1882.141 1039.621 L 1881.976 1039.439 L 1883.19 1038.339 L 1882.78 1037.886 L 1882.942 1037.739 L 1883.93 1038.83 L 1883.768 1038.977 L 1883.355 1038.521 L 1882.141 1039.621 Z  M 1882.88 1040.507 L 1882.724 1040.317 L 1884.161 1039.14 L 1884.317 1039.33 L 1882.88 1040.507 Z  M 1883.851 1040.29 L 1883.851 1040.29 L 1883.851 1040.29 Q 1884.235 1040.034 1884.591 1040.095 L 1884.591 1040.095 L 1884.591 1040.095 Q 1884.946 1040.157 1885.164 1040.484 L 1885.164 1040.484 L 1885.164 1040.484 Q 1885.307 1040.698 1885.319 1040.937 L 1885.319 1040.937 L 1885.319 1040.937 Q 1885.331 1041.177 1885.208 1041.389 L 1885.208 1041.389 L 1885.208 1041.389 Q 1885.086 1041.602 1884.854 1041.756 L 1884.854 1041.756 L 1884.854 1041.756 Q 1884.619 1041.913 1884.37 1041.942 L 1884.37 1041.942 L 1884.37 1041.942 Q 1884.121 1041.971 1883.91 1041.86 L 1883.91 1041.86 L 1883.91 1041.86 Q 1883.699 1041.75 1883.564 1041.549 L 1883.564 1041.549 L 1883.564 1041.549 Q 1883.419 1041.33 1883.41 1041.088 L 1883.41 1041.088 L 1883.41 1041.088 Q 1883.401 1040.846 1883.524 1040.636 L 1883.524 1040.636 L 1883.524 1040.636 Q 1883.647 1040.426 1883.851 1040.29 Z  M 1883.988 1040.503 L 1883.988 1040.503 L 1883.988 1040.503 Q 1883.709 1040.69 1883.648 1040.947 L 1883.648 1040.947 L 1883.648 1040.947 Q 1883.588 1041.204 1883.739 1041.431 L 1883.739 1041.431 L 1883.739 1041.431 Q 1883.893 1041.662 1884.154 1041.703 L 1884.154 1041.703 L 1884.154 1041.703 Q 1884.416 1041.744 1884.714 1041.545 L 1884.714 1041.545 L 1884.714 1041.545 Q 1884.903 1041.419 1885.001 1041.261 L 1885.001 1041.261 L 1885.001 1041.261 Q 1885.099 1041.104 1885.095 1040.929 L 1885.095 1040.929 L 1885.095 1040.929 Q 1885.091 1040.755 1884.989 1040.602 L 1884.989 1040.602 L 1884.989 1040.602 Q 1884.844 1040.385 1884.59 1040.328 L 1884.59 1040.328 L 1884.59 1040.328 Q 1884.337 1040.271 1883.988 1040.503 Z  M 1884.316 1042.772 L 1884.205 1042.564 L 1885.843 1041.69 L 1885.962 1041.912 L 1885.135 1043.459 L 1886.421 1042.773 L 1886.532 1042.98 L 1884.894 1043.855 L 1884.775 1043.632 L 1885.603 1042.085 L 1884.316 1042.772 Z  M 1885.035 1044.309 L 1884.947 1044.063 L 1886.936 1044.108 L 1887.025 1044.358 L 1885.533 1045.699 L 1885.439 1045.436 L 1885.895 1045.042 L 1885.634 1044.311 L 1885.035 1044.309 Z  M 1886.427 1044.319 L 1885.846 1044.31 L 1886.058 1044.903 L 1886.477 1044.547 L 1886.477 1044.547 Q 1886.668 1044.385 1886.795 1044.293 L 1886.795 1044.293 L 1886.795 1044.293 Q 1886.615 1044.32 1886.427 1044.319 L 1886.427 1044.319 Z  M 1885.85 1047.01 L 1885.568 1045.884 L 1887.369 1045.432 L 1887.429 1045.67 L 1885.84 1046.069 L 1886.063 1046.956 L 1885.85 1047.01 Z  M 1859.662 1038.055 L 1859.472 1038.21 L 1858.296 1036.773 L 1859.265 1035.98 L 1859.404 1036.149 L 1858.625 1036.787 L 1858.989 1037.232 L 1859.663 1036.68 L 1859.802 1036.85 L 1859.128 1037.402 L 1859.662 1038.055 Z  M 1860.748 1037.198 L 1860.531 1037.343 L 1860.095 1035.402 L 1860.316 1035.255 L 1861.978 1036.38 L 1861.745 1036.535 L 1861.253 1036.187 L 1860.606 1036.617 L 1860.748 1037.198 Z  M 1860.422 1035.845 L 1860.554 1036.411 L 1861.078 1036.062 L 1860.632 1035.741 L 1860.632 1035.741 Q 1860.428 1035.596 1860.309 1035.494 L 1860.309 1035.494 L 1860.309 1035.494 Q 1860.378 1035.662 1860.422 1035.845 L 1860.422 1035.845 Z  M 1863.023 1035.103 L 1863.023 1035.103 L 1863.269 1035.042 L 1863.269 1035.042 Q 1863.343 1035.346 1863.241 1035.58 L 1863.241 1035.58 L 1863.241 1035.58 Q 1863.139 1035.815 1862.882 1035.951 L 1862.882 1035.951 L 1862.882 1035.951 Q 1862.618 1036.093 1862.394 1036.073 L 1862.394 1036.073 L 1862.394 1036.073 Q 1862.17 1036.054 1861.975 1035.895 L 1861.975 1035.895 L 1861.975 1035.895 Q 1861.779 1035.737 1861.654 1035.502 L 1861.654 1035.502 L 1861.654 1035.502 Q 1861.518 1035.246 1861.514 1035.003 L 1861.514 1035.003 L 1861.514 1035.003 Q 1861.51 1034.761 1861.638 1034.565 L 1861.638 1034.565 L 1861.638 1034.565 Q 1861.766 1034.37 1861.983 1034.255 L 1861.983 1034.255 L 1861.983 1034.255 Q 1862.229 1034.124 1862.463 1034.16 L 1862.463 1034.16 L 1862.463 1034.16 Q 1862.698 1034.195 1862.885 1034.387 L 1862.885 1034.387 L 1862.698 1034.551 L 1862.698 1034.551 Q 1862.545 1034.403 1862.394 1034.379 L 1862.394 1034.379 L 1862.394 1034.379 Q 1862.242 1034.355 1862.077 1034.443 L 1862.077 1034.443 L 1862.077 1034.443 Q 1861.888 1034.543 1861.81 1034.701 L 1861.81 1034.701 L 1861.81 1034.701 Q 1861.731 1034.86 1861.761 1035.04 L 1861.761 1035.04 L 1861.761 1035.04 Q 1861.791 1035.22 1861.877 1035.382 L 1861.877 1035.382 L 1861.877 1035.382 Q 1861.989 1035.591 1862.133 1035.714 L 1862.133 1035.714 L 1862.133 1035.714 Q 1862.277 1035.838 1862.446 1035.846 L 1862.446 1035.846 L 1862.446 1035.846 Q 1862.616 1035.855 1862.766 1035.775 L 1862.766 1035.775 L 1862.766 1035.775 Q 1862.948 1035.678 1863.018 1035.506 L 1863.018 1035.506 L 1863.018 1035.506 Q 1863.089 1035.333 1863.023 1035.103 Z  M 1864.509 1035.213 L 1864.278 1035.295 L 1863.726 1033.753 L 1863.15 1033.959 L 1863.077 1033.753 L 1864.463 1033.257 L 1864.536 1033.463 L 1863.958 1033.67 L 1864.509 1035.213 Z  M 1865.03 1034.052 L 1865.03 1034.052 L 1865.03 1034.052 Q 1864.918 1033.603 1865.095 1033.289 L 1865.095 1033.289 L 1865.095 1033.289 Q 1865.272 1032.975 1865.653 1032.88 L 1865.653 1032.88 L 1865.653 1032.88 Q 1865.902 1032.817 1866.133 1032.886 L 1866.133 1032.886 L 1866.133 1032.886 Q 1866.363 1032.955 1866.521 1033.142 L 1866.521 1033.142 L 1866.521 1033.142 Q 1866.68 1033.328 1866.748 1033.599 L 1866.748 1033.599 L 1866.748 1033.599 Q 1866.817 1033.873 1866.76 1034.117 L 1866.76 1034.117 L 1866.76 1034.117 Q 1866.704 1034.361 1866.529 1034.523 L 1866.529 1034.523 L 1866.529 1034.523 Q 1866.354 1034.685 1866.12 1034.744 L 1866.12 1034.744 L 1866.12 1034.744 Q 1865.865 1034.808 1865.634 1034.735 L 1865.634 1034.735 L 1865.634 1034.735 Q 1865.403 1034.662 1865.247 1034.476 L 1865.247 1034.476 L 1865.247 1034.476 Q 1865.09 1034.289 1865.03 1034.052 Z  M 1865.277 1033.994 L 1865.277 1033.994 L 1865.277 1033.994 Q 1865.359 1034.32 1865.581 1034.463 L 1865.581 1034.463 L 1865.581 1034.463 Q 1865.803 1034.606 1866.067 1034.54 L 1866.067 1034.54 L 1866.067 1034.54 Q 1866.336 1034.473 1866.463 1034.24 L 1866.463 1034.24 L 1866.463 1034.24 Q 1866.589 1034.007 1866.502 1033.659 L 1866.502 1033.659 L 1866.502 1033.659 Q 1866.447 1033.439 1866.331 1033.294 L 1866.331 1033.294 L 1866.331 1033.294 Q 1866.216 1033.148 1866.05 1033.094 L 1866.05 1033.094 L 1866.05 1033.094 Q 1865.884 1033.04 1865.706 1033.084 L 1865.706 1033.084 L 1865.706 1033.084 Q 1865.453 1033.148 1865.314 1033.368 L 1865.314 1033.368 L 1865.314 1033.368 Q 1865.175 1033.587 1865.277 1033.994 Z  M 1867.535 1034.415 L 1867.292 1034.452 L 1867.018 1032.615 L 1867.832 1032.493 L 1867.832 1032.493 Q 1868.078 1032.457 1868.213 1032.487 L 1868.213 1032.487 L 1868.213 1032.487 Q 1868.348 1032.518 1868.443 1032.632 L 1868.443 1032.632 L 1868.443 1032.632 Q 1868.538 1032.745 1868.561 1032.897 L 1868.561 1032.897 L 1868.561 1032.897 Q 1868.59 1033.093 1868.483 1033.245 L 1868.483 1033.245 L 1868.483 1033.245 Q 1868.377 1033.398 1868.118 1033.474 L 1868.118 1033.474 L 1868.118 1033.474 Q 1868.221 1033.506 1868.278 1033.544 L 1868.278 1033.544 L 1868.278 1033.544 Q 1868.399 1033.626 1868.516 1033.758 L 1868.516 1033.758 L 1868.91 1034.21 L 1868.605 1034.256 L 1868.305 1033.91 L 1868.305 1033.91 Q 1868.173 1033.76 1868.091 1033.683 L 1868.091 1033.683 L 1868.091 1033.683 Q 1868.009 1033.606 1867.95 1033.579 L 1867.95 1033.579 L 1867.95 1033.579 Q 1867.89 1033.552 1867.832 1033.546 L 1867.832 1033.546 L 1867.832 1033.546 Q 1867.789 1033.544 1867.695 1033.558 L 1867.695 1033.558 L 1867.413 1033.6 L 1867.535 1034.415 Z  M 1867.291 1032.782 L 1867.382 1033.389 L 1867.904 1033.311 L 1867.904 1033.311 Q 1868.071 1033.287 1868.16 1033.238 L 1868.16 1033.238 L 1868.16 1033.238 Q 1868.248 1033.19 1868.286 1033.106 L 1868.286 1033.106 L 1868.286 1033.106 Q 1868.323 1033.023 1868.31 1032.934 L 1868.31 1032.934 L 1868.31 1032.934 Q 1868.291 1032.804 1868.184 1032.734 L 1868.184 1032.734 L 1868.184 1032.734 Q 1868.077 1032.664 1867.872 1032.695 L 1867.872 1032.695 L 1867.291 1032.782 Z  M 1869.035 1033.646 L 1869.035 1033.646 L 1869.265 1033.614 L 1869.265 1033.614 Q 1869.289 1033.753 1869.353 1033.839 L 1869.353 1033.839 L 1869.353 1033.839 Q 1869.418 1033.925 1869.547 1033.974 L 1869.547 1033.974 L 1869.547 1033.974 Q 1869.676 1034.023 1869.835 1034.015 L 1869.835 1034.015 L 1869.835 1034.015 Q 1869.975 1034.008 1870.08 1033.961 L 1870.08 1033.961 L 1870.08 1033.961 Q 1870.186 1033.914 1870.235 1033.838 L 1870.235 1033.838 L 1870.235 1033.838 Q 1870.284 1033.763 1870.279 1033.677 L 1870.279 1033.677 L 1870.279 1033.677 Q 1870.275 1033.59 1870.221 1033.527 L 1870.221 1033.527 L 1870.221 1033.527 Q 1870.167 1033.464 1870.049 1033.426 L 1870.049 1033.426 L 1870.049 1033.426 Q 1869.973 1033.4 1869.714 1033.352 L 1869.714 1033.352 L 1869.714 1033.352 Q 1869.456 1033.303 1869.35 1033.254 L 1869.35 1033.254 L 1869.35 1033.254 Q 1869.214 1033.191 1869.144 1033.091 L 1869.144 1033.091 L 1869.144 1033.091 Q 1869.073 1032.991 1869.067 1032.863 L 1869.067 1032.863 L 1869.067 1032.863 Q 1869.06 1032.723 1869.134 1032.597 L 1869.134 1032.597 L 1869.134 1032.597 Q 1869.207 1032.471 1869.357 1032.4 L 1869.357 1032.4 L 1869.357 1032.4 Q 1869.507 1032.329 1869.695 1032.32 L 1869.695 1032.32 L 1869.695 1032.32 Q 1869.901 1032.309 1870.062 1032.368 L 1870.062 1032.368 L 1870.062 1032.368 Q 1870.223 1032.427 1870.314 1032.551 L 1870.314 1032.551 L 1870.314 1032.551 Q 1870.405 1032.676 1870.419 1032.839 L 1870.419 1032.839 L 1870.185 1032.869 L 1870.185 1032.869 Q 1870.157 1032.694 1870.043 1032.609 L 1870.043 1032.609 L 1870.043 1032.609 Q 1869.929 1032.525 1869.716 1032.535 L 1869.716 1032.535 L 1869.716 1032.535 Q 1869.493 1032.546 1869.395 1032.633 L 1869.395 1032.633 L 1869.395 1032.633 Q 1869.297 1032.72 1869.303 1032.835 L 1869.303 1032.835 L 1869.303 1032.835 Q 1869.308 1032.935 1869.383 1032.996 L 1869.383 1032.996 L 1869.383 1032.996 Q 1869.457 1033.057 1869.76 1033.11 L 1869.76 1033.11 L 1869.76 1033.11 Q 1870.062 1033.163 1870.176 1033.208 L 1870.176 1033.208 L 1870.176 1033.208 Q 1870.342 1033.274 1870.425 1033.385 L 1870.425 1033.385 L 1870.425 1033.385 Q 1870.508 1033.496 1870.515 1033.645 L 1870.515 1033.645 L 1870.515 1033.645 Q 1870.522 1033.793 1870.444 1033.928 L 1870.444 1033.928 L 1870.444 1033.928 Q 1870.366 1034.063 1870.211 1034.144 L 1870.211 1034.144 L 1870.211 1034.144 Q 1870.055 1034.224 1869.857 1034.234 L 1869.857 1034.234 L 1869.857 1034.234 Q 1869.605 1034.247 1869.431 1034.182 L 1869.431 1034.182 L 1869.431 1034.182 Q 1869.257 1034.117 1869.153 1033.974 L 1869.153 1033.974 L 1869.153 1033.974 Q 1869.049 1033.832 1869.035 1033.646 Z  M 1854.451 1046.667 L 1854.391 1046.905 L 1852.59 1046.453 L 1852.65 1046.214 L 1853.39 1046.4 L 1853.625 1045.464 L 1852.885 1045.278 L 1852.945 1045.04 L 1854.746 1045.493 L 1854.687 1045.731 L 1853.838 1045.518 L 1853.602 1046.454 L 1854.451 1046.667 Z  M 1854.565 1043.697 L 1853.556 1043.336 L 1853.639 1043.104 L 1854.649 1043.466 L 1854.649 1043.466 Q 1854.913 1043.561 1855.047 1043.676 L 1855.047 1043.676 L 1855.047 1043.676 Q 1855.18 1043.791 1855.222 1043.981 L 1855.222 1043.981 L 1855.222 1043.981 Q 1855.263 1044.172 1855.173 1044.425 L 1855.173 1044.425 L 1855.173 1044.425 Q 1855.085 1044.67 1854.944 1044.796 L 1854.944 1044.796 L 1854.944 1044.796 Q 1854.803 1044.922 1854.619 1044.931 L 1854.619 1044.931 L 1854.619 1044.931 Q 1854.435 1044.941 1854.157 1044.841 L 1854.157 1044.841 L 1853.147 1044.48 L 1853.23 1044.248 L 1854.238 1044.609 L 1854.238 1044.609 Q 1854.466 1044.691 1854.589 1044.687 L 1854.589 1044.687 L 1854.589 1044.687 Q 1854.712 1044.684 1854.808 1044.601 L 1854.808 1044.601 L 1854.808 1044.601 Q 1854.903 1044.519 1854.957 1044.37 L 1854.957 1044.37 L 1854.957 1044.37 Q 1855.048 1044.115 1854.971 1043.965 L 1854.971 1043.965 L 1854.971 1043.965 Q 1854.894 1043.815 1854.565 1043.697 L 1854.565 1043.697 Z  M 1855.691 1043.164 L 1855.579 1043.373 L 1853.941 1042.499 L 1854.115 1042.173 L 1855.482 1042.404 L 1855.482 1042.404 Q 1855.673 1042.437 1855.766 1042.455 L 1855.766 1042.455 L 1855.766 1042.455 Q 1855.692 1042.379 1855.55 1042.228 L 1855.55 1042.228 L 1854.619 1041.227 L 1854.775 1040.935 L 1856.413 1041.81 L 1856.302 1042.019 L 1854.931 1041.287 L 1856.048 1042.495 L 1855.943 1042.691 L 1854.296 1042.42 L 1855.691 1043.164 Z  M 1856.663 1041.428 L 1856.508 1041.638 L 1855.44 1039.96 L 1855.597 1039.747 L 1857.542 1040.241 L 1857.376 1040.466 L 1856.795 1040.306 L 1856.333 1040.93 L 1856.663 1041.428 Z  M 1855.897 1040.266 L 1856.214 1040.754 L 1856.588 1040.248 L 1856.06 1040.097 L 1856.06 1040.097 Q 1855.819 1040.029 1855.672 1039.974 L 1855.672 1039.974 L 1855.672 1039.974 Q 1855.794 1040.109 1855.897 1040.266 L 1855.897 1040.266 Z  M 1857.814 1039.908 L 1857.656 1040.083 L 1856.279 1038.836 L 1856.449 1038.65 L 1858.184 1038.905 L 1857.103 1037.927 L 1857.261 1037.752 L 1858.638 1038.998 L 1858.469 1039.185 L 1856.732 1038.929 L 1857.814 1039.908 Z " fill-rule="evenodd" fill="rgb(255,255,255)"/><path d=" M 1882.641 1062.819 L 1882.466 1063.012 L 1881.568 1061.237 L 1881.745 1061.041 L 1883.632 1061.724 L 1883.444 1061.931 L 1882.882 1061.714 L 1882.361 1062.29 L 1882.641 1062.819 Z  M 1881.993 1061.586 L 1882.26 1062.103 L 1882.683 1061.636 L 1882.171 1061.435 L 1882.171 1061.435 Q 1881.938 1061.343 1881.797 1061.274 L 1881.797 1061.274 L 1881.797 1061.274 Q 1881.906 1061.42 1881.993 1061.586 L 1881.993 1061.586 Z  M 1883.907 1061.393 L 1883.767 1061.583 L 1882.274 1060.478 L 1882.424 1060.275 L 1884.177 1060.359 L 1883.005 1059.491 L 1883.145 1059.302 L 1884.638 1060.406 L 1884.488 1060.609 L 1882.734 1060.525 L 1883.907 1061.393 Z  M 1884.907 1060.021 L 1884.773 1060.245 L 1883.545 1058.679 L 1883.681 1058.452 L 1885.665 1058.753 L 1885.522 1058.993 L 1884.928 1058.891 L 1884.529 1059.557 L 1884.907 1060.021 Z  M 1884.031 1058.939 L 1884.394 1059.393 L 1884.717 1058.853 L 1884.176 1058.755 L 1884.176 1058.755 Q 1883.929 1058.711 1883.778 1058.671 L 1883.778 1058.671 L 1883.778 1058.671 Q 1883.913 1058.793 1884.031 1058.939 L 1884.031 1058.939 Z  M 1886.253 1057.541 L 1885.757 1058.59 L 1884.078 1057.797 L 1884.183 1057.574 L 1885.664 1058.274 L 1886.054 1057.447 L 1886.253 1057.541 Z  M 1886.663 1056.562 L 1886.569 1056.789 L 1885.842 1056.488 L 1884.579 1056.74 L 1884.694 1056.463 L 1885.351 1056.339 L 1885.351 1056.339 Q 1885.535 1056.306 1885.714 1056.285 L 1885.714 1056.285 L 1885.714 1056.285 Q 1885.611 1056.152 1885.488 1055.972 L 1885.488 1055.972 L 1885.121 1055.431 L 1885.231 1055.167 L 1885.936 1056.261 L 1886.663 1056.562 Z  M 1886.378 1055.558 L 1886.378 1055.558 L 1886.426 1055.331 L 1886.426 1055.331 Q 1886.564 1055.355 1886.667 1055.324 L 1886.667 1055.324 L 1886.667 1055.324 Q 1886.77 1055.292 1886.86 1055.187 L 1886.86 1055.187 L 1886.86 1055.187 Q 1886.95 1055.082 1886.996 1054.93 L 1886.996 1054.93 L 1886.996 1054.93 Q 1887.037 1054.796 1887.028 1054.681 L 1887.028 1054.681 L 1887.028 1054.681 Q 1887.019 1054.566 1886.965 1054.494 L 1886.965 1054.494 L 1886.965 1054.494 Q 1886.91 1054.423 1886.828 1054.398 L 1886.828 1054.398 L 1886.828 1054.398 Q 1886.744 1054.372 1886.667 1054.402 L 1886.667 1054.402 L 1886.667 1054.402 Q 1886.59 1054.431 1886.514 1054.53 L 1886.514 1054.53 L 1886.514 1054.53 Q 1886.464 1054.593 1886.331 1054.82 L 1886.331 1054.82 L 1886.331 1054.82 Q 1886.198 1055.047 1886.116 1055.129 L 1886.116 1055.129 L 1886.116 1055.129 Q 1886.01 1055.236 1885.893 1055.268 L 1885.893 1055.268 L 1885.893 1055.268 Q 1885.775 1055.301 1885.652 1055.263 L 1885.652 1055.263 L 1885.652 1055.263 Q 1885.518 1055.222 1885.424 1055.111 L 1885.424 1055.111 L 1885.424 1055.111 Q 1885.33 1054.999 1885.314 1054.834 L 1885.314 1054.834 L 1885.314 1054.834 Q 1885.298 1054.668 1885.353 1054.489 L 1885.353 1054.489 L 1885.353 1054.489 Q 1885.413 1054.292 1885.523 1054.16 L 1885.523 1054.16 L 1885.523 1054.16 Q 1885.632 1054.028 1885.78 1053.985 L 1885.78 1053.985 L 1885.78 1053.985 Q 1885.929 1053.941 1886.087 1053.983 L 1886.087 1053.983 L 1886.035 1054.213 L 1886.035 1054.213 Q 1885.861 1054.18 1885.743 1054.259 L 1885.743 1054.259 L 1885.743 1054.259 Q 1885.625 1054.338 1885.563 1054.542 L 1885.563 1054.542 L 1885.563 1054.542 Q 1885.498 1054.756 1885.547 1054.877 L 1885.547 1054.877 L 1885.547 1054.877 Q 1885.595 1054.998 1885.706 1055.032 L 1885.706 1055.032 L 1885.706 1055.032 Q 1885.801 1055.061 1885.884 1055.011 L 1885.884 1055.011 L 1885.884 1055.011 Q 1885.967 1054.962 1886.119 1054.695 L 1886.119 1054.695 L 1886.119 1054.695 Q 1886.271 1054.428 1886.351 1054.336 L 1886.351 1054.336 L 1886.351 1054.336 Q 1886.47 1054.203 1886.602 1054.162 L 1886.602 1054.162 L 1886.602 1054.162 Q 1886.735 1054.122 1886.878 1054.165 L 1886.878 1054.165 L 1886.878 1054.165 Q 1887.019 1054.208 1887.12 1054.327 L 1887.12 1054.327 L 1887.12 1054.327 Q 1887.221 1054.447 1887.244 1054.62 L 1887.244 1054.62 L 1887.244 1054.62 Q 1887.268 1054.793 1887.21 1054.984 L 1887.21 1054.984 L 1887.21 1054.984 Q 1887.136 1055.225 1887.017 1055.367 L 1887.017 1055.367 L 1887.017 1055.367 Q 1886.897 1055.508 1886.727 1055.558 L 1886.727 1055.558 L 1886.727 1055.558 Q 1886.558 1055.608 1886.378 1055.558 Z  M 1887.559 1053.276 L 1887.511 1053.517 L 1885.905 1053.196 L 1885.785 1053.796 L 1885.57 1053.753 L 1885.859 1052.309 L 1886.074 1052.352 L 1885.953 1052.955 L 1887.559 1053.276 Z  M 1867.926 1067.913 L 1866.555 1067.708 L 1866.83 1065.872 L 1868.158 1066.07 L 1868.125 1066.287 L 1867.04 1066.125 L 1866.956 1066.687 L 1867.972 1066.839 L 1867.94 1067.055 L 1866.924 1066.903 L 1866.83 1067.528 L 1867.958 1067.697 L 1867.926 1067.913 Z  M 1868.368 1067.973 L 1868.074 1067.958 L 1868.839 1067.027 L 1868.251 1066.107 L 1868.543 1066.122 L 1868.856 1066.614 L 1868.856 1066.614 Q 1868.953 1066.768 1868.994 1066.849 L 1868.994 1066.849 L 1868.994 1066.849 Q 1869.061 1066.751 1869.151 1066.645 L 1869.151 1066.645 L 1869.549 1066.172 L 1869.816 1066.185 L 1869.121 1067.027 L 1869.774 1068.042 L 1869.47 1068.027 L 1869.036 1067.342 L 1869.036 1067.342 Q 1869 1067.284 1868.962 1067.214 L 1868.962 1067.214 L 1868.962 1067.214 Q 1868.895 1067.313 1868.866 1067.349 L 1868.866 1067.349 L 1868.368 1067.973 Z  M 1870.237 1068.047 L 1869.991 1068.059 L 1869.899 1066.205 L 1870.599 1066.17 L 1870.599 1066.17 Q 1870.783 1066.161 1870.882 1066.174 L 1870.882 1066.174 L 1870.882 1066.174 Q 1871.02 1066.189 1871.115 1066.249 L 1871.115 1066.249 L 1871.115 1066.249 Q 1871.211 1066.308 1871.273 1066.42 L 1871.273 1066.42 L 1871.273 1066.42 Q 1871.335 1066.533 1871.342 1066.671 L 1871.342 1066.671 L 1871.342 1066.671 Q 1871.353 1066.907 1871.211 1067.079 L 1871.211 1067.079 L 1871.211 1067.079 Q 1871.069 1067.25 1870.675 1067.269 L 1870.675 1067.269 L 1870.199 1067.293 L 1870.237 1068.047 Z  M 1870.155 1066.411 L 1870.188 1067.074 L 1870.668 1067.05 L 1870.668 1067.05 Q 1870.906 1067.039 1871.001 1066.945 L 1871.001 1066.945 L 1871.001 1066.945 Q 1871.097 1066.852 1871.089 1066.691 L 1871.089 1066.691 L 1871.089 1066.691 Q 1871.083 1066.574 1871.02 1066.494 L 1871.02 1066.494 L 1871.02 1066.494 Q 1870.957 1066.415 1870.86 1066.393 L 1870.86 1066.393 L 1870.86 1066.393 Q 1870.797 1066.379 1870.63 1066.388 L 1870.63 1066.388 L 1870.155 1066.411 Z  M 1873.102 1067.819 L 1871.723 1067.956 L 1871.539 1066.108 L 1872.876 1065.975 L 1872.897 1066.193 L 1871.806 1066.302 L 1871.862 1066.868 L 1872.884 1066.766 L 1872.906 1066.983 L 1871.884 1067.084 L 1871.946 1067.713 L 1873.081 1067.6 L 1873.102 1067.819 Z  M 1873.678 1067.675 L 1873.44 1067.735 L 1872.986 1065.934 L 1873.784 1065.733 L 1873.784 1065.733 Q 1874.025 1065.672 1874.163 1065.689 L 1874.163 1065.689 L 1874.163 1065.689 Q 1874.3 1065.706 1874.406 1065.81 L 1874.406 1065.81 L 1874.406 1065.81 Q 1874.512 1065.914 1874.549 1066.063 L 1874.549 1066.063 L 1874.549 1066.063 Q 1874.598 1066.254 1874.507 1066.417 L 1874.507 1066.417 L 1874.507 1066.417 Q 1874.416 1066.58 1874.165 1066.681 L 1874.165 1066.681 L 1874.165 1066.681 Q 1874.272 1066.702 1874.332 1066.734 L 1874.332 1066.734 L 1874.332 1066.734 Q 1874.46 1066.803 1874.59 1066.924 L 1874.59 1066.924 L 1875.027 1067.335 L 1874.727 1067.41 L 1874.394 1067.096 L 1874.394 1067.096 Q 1874.249 1066.96 1874.16 1066.891 L 1874.16 1066.891 L 1874.16 1066.891 Q 1874.071 1066.822 1874.008 1066.801 L 1874.008 1066.801 L 1874.008 1066.801 Q 1873.946 1066.78 1873.888 1066.781 L 1873.888 1066.781 L 1873.888 1066.781 Q 1873.845 1066.782 1873.753 1066.805 L 1873.753 1066.805 L 1873.476 1066.875 L 1873.678 1067.675 Z  M 1873.274 1066.073 L 1873.424 1066.669 L 1873.937 1066.54 L 1873.937 1066.54 Q 1874.1 1066.498 1874.184 1066.441 L 1874.184 1066.441 L 1874.184 1066.441 Q 1874.267 1066.384 1874.296 1066.298 L 1874.296 1066.298 L 1874.296 1066.298 Q 1874.326 1066.212 1874.304 1066.124 L 1874.304 1066.124 L 1874.304 1066.124 Q 1874.271 1065.997 1874.158 1065.938 L 1874.158 1065.938 L 1874.158 1065.938 Q 1874.044 1065.879 1873.844 1065.929 L 1873.844 1065.929 L 1873.274 1066.073 Z  M 1875.522 1067.172 L 1875.287 1067.244 L 1874.745 1065.467 L 1874.98 1065.396 L 1875.522 1067.172 Z  M 1877.24 1066.561 L 1875.936 1067.029 L 1875.308 1065.281 L 1876.572 1064.828 L 1876.646 1065.034 L 1875.614 1065.405 L 1875.806 1065.94 L 1876.773 1065.593 L 1876.846 1065.798 L 1875.88 1066.145 L 1876.093 1066.74 L 1877.166 1066.355 L 1877.24 1066.561 Z  M 1877.743 1066.278 L 1877.53 1066.379 L 1876.735 1064.701 L 1876.963 1064.593 L 1878.469 1065.493 L 1877.845 1064.175 L 1878.058 1064.074 L 1878.853 1065.753 L 1878.625 1065.861 L 1877.119 1064.959 L 1877.743 1066.278 Z  M 1879.937 1064.238 L 1879.937 1064.238 L 1880.176 1064.154 L 1880.176 1064.154 Q 1880.279 1064.448 1880.201 1064.692 L 1880.201 1064.692 L 1880.201 1064.692 Q 1880.122 1064.936 1879.881 1065.097 L 1879.881 1065.097 L 1879.881 1065.097 Q 1879.631 1065.264 1879.407 1065.266 L 1879.407 1065.266 L 1879.407 1065.266 Q 1879.183 1065.269 1878.972 1065.131 L 1878.972 1065.131 L 1878.972 1065.131 Q 1878.762 1064.993 1878.614 1064.771 L 1878.614 1064.771 L 1878.614 1064.771 Q 1878.453 1064.53 1878.425 1064.289 L 1878.425 1064.289 L 1878.425 1064.289 Q 1878.397 1064.048 1878.505 1063.841 L 1878.505 1063.841 L 1878.505 1063.841 Q 1878.613 1063.634 1878.817 1063.498 L 1878.817 1063.498 L 1878.817 1063.498 Q 1879.049 1063.343 1879.286 1063.355 L 1879.286 1063.355 L 1879.286 1063.355 Q 1879.523 1063.368 1879.728 1063.54 L 1879.728 1063.54 L 1879.558 1063.722 L 1879.558 1063.722 Q 1879.392 1063.589 1879.238 1063.581 L 1879.238 1063.581 L 1879.238 1063.581 Q 1879.085 1063.572 1878.93 1063.675 L 1878.93 1063.675 L 1878.93 1063.675 Q 1878.752 1063.794 1878.689 1063.959 L 1878.689 1063.959 L 1878.689 1063.959 Q 1878.627 1064.125 1878.674 1064.301 L 1878.674 1064.301 L 1878.674 1064.301 Q 1878.722 1064.477 1878.824 1064.63 L 1878.824 1064.63 L 1878.824 1064.63 Q 1878.956 1064.827 1879.111 1064.935 L 1879.111 1064.935 L 1879.111 1064.935 Q 1879.267 1065.044 1879.436 1065.036 L 1879.436 1065.036 L 1879.436 1065.036 Q 1879.606 1065.027 1879.747 1064.933 L 1879.747 1064.933 L 1879.747 1064.933 Q 1879.919 1064.819 1879.972 1064.64 L 1879.972 1064.64 L 1879.972 1064.64 Q 1880.025 1064.461 1879.937 1064.238 Z  M 1881.822 1063.58 L 1880.75 1064.459 L 1879.573 1063.023 L 1880.611 1062.172 L 1880.75 1062.341 L 1879.902 1063.037 L 1880.262 1063.477 L 1881.057 1062.825 L 1881.195 1062.994 L 1880.4 1063.645 L 1880.801 1064.134 L 1881.683 1063.411 L 1881.822 1063.58 Z  M 1860.826 1064.565 L 1861.463 1063.704 L 1861.661 1063.85 L 1861.022 1064.712 L 1861.022 1064.712 Q 1860.856 1064.937 1860.707 1065.032 L 1860.707 1065.032 L 1860.707 1065.032 Q 1860.558 1065.127 1860.364 1065.111 L 1860.364 1065.111 L 1860.364 1065.111 Q 1860.17 1065.096 1859.954 1064.936 L 1859.954 1064.936 L 1859.954 1064.936 Q 1859.744 1064.781 1859.664 1064.61 L 1859.664 1064.61 L 1859.664 1064.61 Q 1859.584 1064.439 1859.628 1064.26 L 1859.628 1064.26 L 1859.628 1064.26 Q 1859.673 1064.081 1859.848 1063.844 L 1859.848 1063.844 L 1860.486 1062.981 L 1860.684 1063.127 L 1860.047 1063.989 L 1860.047 1063.989 Q 1859.903 1064.183 1859.871 1064.302 L 1859.871 1064.302 L 1859.871 1064.302 Q 1859.839 1064.421 1859.89 1064.536 L 1859.89 1064.536 L 1859.89 1064.536 Q 1859.941 1064.651 1860.068 1064.745 L 1860.068 1064.745 L 1860.068 1064.745 Q 1860.286 1064.907 1860.452 1064.876 L 1860.452 1064.876 L 1860.452 1064.876 Q 1860.618 1064.846 1860.826 1064.565 L 1860.826 1064.565 Z  M 1861.13 1064.967 L 1861.13 1064.967 L 1861.344 1065.059 L 1861.344 1065.059 Q 1861.293 1065.189 1861.304 1065.296 L 1861.304 1065.296 L 1861.304 1065.296 Q 1861.315 1065.404 1861.401 1065.512 L 1861.401 1065.512 L 1861.401 1065.512 Q 1861.487 1065.62 1861.627 1065.695 L 1861.627 1065.695 L 1861.627 1065.695 Q 1861.751 1065.761 1861.866 1065.775 L 1861.866 1065.775 L 1861.866 1065.775 Q 1861.98 1065.788 1862.061 1065.749 L 1862.061 1065.749 L 1862.061 1065.749 Q 1862.142 1065.709 1862.182 1065.633 L 1862.182 1065.633 L 1862.182 1065.633 Q 1862.223 1065.556 1862.209 1065.475 L 1862.209 1065.475 L 1862.209 1065.475 Q 1862.195 1065.393 1862.113 1065.299 L 1862.113 1065.299 L 1862.113 1065.299 Q 1862.061 1065.239 1861.864 1065.064 L 1861.864 1065.064 L 1861.864 1065.064 Q 1861.667 1064.889 1861.603 1064.793 L 1861.603 1064.793 L 1861.603 1064.793 Q 1861.518 1064.669 1861.509 1064.547 L 1861.509 1064.547 L 1861.509 1064.547 Q 1861.5 1064.425 1861.56 1064.312 L 1861.56 1064.312 L 1861.56 1064.312 Q 1861.627 1064.188 1861.755 1064.118 L 1861.755 1064.118 L 1861.755 1064.118 Q 1861.882 1064.048 1862.048 1064.064 L 1862.048 1064.064 L 1862.048 1064.064 Q 1862.213 1064.08 1862.378 1064.169 L 1862.378 1064.169 L 1862.378 1064.169 Q 1862.56 1064.266 1862.668 1064.399 L 1862.668 1064.399 L 1862.668 1064.399 Q 1862.776 1064.532 1862.79 1064.686 L 1862.79 1064.686 L 1862.79 1064.686 Q 1862.804 1064.84 1862.733 1064.987 L 1862.733 1064.987 L 1862.516 1064.891 L 1862.516 1064.891 Q 1862.582 1064.727 1862.528 1064.596 L 1862.528 1064.596 L 1862.528 1064.596 Q 1862.474 1064.465 1862.285 1064.364 L 1862.285 1064.364 L 1862.285 1064.364 Q 1862.088 1064.259 1861.96 1064.284 L 1861.96 1064.284 L 1861.96 1064.284 Q 1861.831 1064.308 1861.777 1064.409 L 1861.777 1064.409 L 1861.777 1064.409 Q 1861.73 1064.498 1861.763 1064.589 L 1861.763 1064.589 L 1861.763 1064.589 Q 1861.795 1064.679 1862.028 1064.88 L 1862.028 1064.88 L 1862.028 1064.88 Q 1862.26 1065.081 1862.335 1065.178 L 1862.335 1065.178 L 1862.335 1065.178 Q 1862.443 1065.32 1862.457 1065.458 L 1862.457 1065.458 L 1862.457 1065.458 Q 1862.471 1065.595 1862.401 1065.727 L 1862.401 1065.727 L 1862.401 1065.727 Q 1862.331 1065.858 1862.194 1065.934 L 1862.194 1065.934 L 1862.194 1065.934 Q 1862.058 1066.009 1861.883 1065.999 L 1861.883 1065.999 L 1861.883 1065.999 Q 1861.709 1065.988 1861.533 1065.894 L 1861.533 1065.894 L 1861.533 1065.894 Q 1861.311 1065.776 1861.195 1065.631 L 1861.195 1065.631 L 1861.195 1065.631 Q 1861.079 1065.486 1861.063 1065.31 L 1861.063 1065.31 L 1861.063 1065.31 Q 1861.047 1065.134 1861.13 1064.967 Z  M 1863.736 1066.88 L 1862.456 1066.35 L 1863.166 1064.634 L 1864.407 1065.148 L 1864.323 1065.351 L 1863.309 1064.931 L 1863.092 1065.456 L 1864.041 1065.85 L 1863.958 1066.051 L 1863.008 1065.658 L 1862.767 1066.242 L 1863.82 1066.678 L 1863.736 1066.88 Z  M 1864.289 1067.084 L 1864.054 1067.012 L 1864.594 1065.236 L 1865.382 1065.475 L 1865.382 1065.475 Q 1865.62 1065.547 1865.729 1065.633 L 1865.729 1065.633 L 1865.729 1065.633 Q 1865.838 1065.718 1865.875 1065.862 L 1865.875 1065.862 L 1865.875 1065.862 Q 1865.912 1066.006 1865.867 1066.152 L 1865.867 1066.152 L 1865.867 1066.152 Q 1865.81 1066.342 1865.648 1066.434 L 1865.648 1066.434 L 1865.648 1066.434 Q 1865.486 1066.526 1865.22 1066.484 L 1865.22 1066.484 L 1865.22 1066.484 Q 1865.299 1066.557 1865.335 1066.615 L 1865.335 1066.615 L 1865.335 1066.615 Q 1865.409 1066.741 1865.458 1066.911 L 1865.458 1066.911 L 1865.62 1067.489 L 1865.324 1067.399 L 1865.201 1066.958 L 1865.201 1066.958 Q 1865.147 1066.766 1865.106 1066.661 L 1865.106 1066.661 L 1865.106 1066.661 Q 1865.065 1066.556 1865.023 1066.506 L 1865.023 1066.506 L 1865.023 1066.506 Q 1864.981 1066.456 1864.93 1066.426 L 1864.93 1066.426 L 1864.93 1066.426 Q 1864.893 1066.405 1864.802 1066.378 L 1864.802 1066.378 L 1864.529 1066.295 L 1864.289 1067.084 Z  M 1864.77 1065.503 L 1864.591 1066.091 L 1865.096 1066.245 L 1865.096 1066.245 Q 1865.258 1066.294 1865.359 1066.288 L 1865.359 1066.288 L 1865.359 1066.288 Q 1865.46 1066.283 1865.529 1066.224 L 1865.529 1066.224 L 1865.529 1066.224 Q 1865.599 1066.165 1865.625 1066.079 L 1865.625 1066.079 L 1865.625 1066.079 Q 1865.663 1065.953 1865.597 1065.844 L 1865.597 1065.844 L 1865.597 1065.844 Q 1865.53 1065.735 1865.332 1065.675 L 1865.332 1065.675 L 1864.77 1065.503 Z  M 1853.227 1053.53 L 1853.227 1053.53 L 1853.202 1053.782 L 1853.202 1053.782 Q 1852.891 1053.751 1852.704 1053.576 L 1852.704 1053.576 L 1852.704 1053.576 Q 1852.517 1053.401 1852.474 1053.114 L 1852.474 1053.114 L 1852.474 1053.114 Q 1852.43 1052.817 1852.523 1052.613 L 1852.523 1052.613 L 1852.523 1052.613 Q 1852.616 1052.409 1852.831 1052.277 L 1852.831 1052.277 L 1852.831 1052.277 Q 1853.045 1052.146 1853.308 1052.106 L 1853.308 1052.106 L 1853.308 1052.106 Q 1853.595 1052.064 1853.825 1052.141 L 1853.825 1052.141 L 1853.825 1052.141 Q 1854.055 1052.219 1854.197 1052.405 L 1854.197 1052.405 L 1854.197 1052.405 Q 1854.338 1052.59 1854.374 1052.833 L 1854.374 1052.833 L 1854.374 1052.833 Q 1854.415 1053.109 1854.303 1053.318 L 1854.303 1053.318 L 1854.303 1053.318 Q 1854.191 1053.527 1853.947 1053.639 L 1853.947 1053.639 L 1853.855 1053.408 L 1853.855 1053.408 Q 1854.046 1053.314 1854.12 1053.179 L 1854.12 1053.179 L 1854.12 1053.179 Q 1854.193 1053.044 1854.165 1052.86 L 1854.165 1052.86 L 1854.165 1052.86 Q 1854.134 1052.648 1854.011 1052.521 L 1854.011 1052.521 L 1854.011 1052.521 Q 1853.888 1052.394 1853.709 1052.362 L 1853.709 1052.362 L 1853.709 1052.362 Q 1853.529 1052.33 1853.347 1052.357 L 1853.347 1052.357 L 1853.347 1052.357 Q 1853.113 1052.392 1852.948 1052.486 L 1852.948 1052.486 L 1852.948 1052.486 Q 1852.784 1052.581 1852.719 1052.738 L 1852.719 1052.738 L 1852.719 1052.738 Q 1852.654 1052.895 1852.679 1053.063 L 1852.679 1053.063 L 1852.679 1053.063 Q 1852.71 1053.267 1852.849 1053.391 L 1852.849 1053.391 L 1852.849 1053.391 Q 1852.987 1053.515 1853.227 1053.53 Z  M 1853.045 1055.511 L 1852.707 1054.167 L 1854.508 1053.714 L 1854.835 1055.016 L 1854.623 1055.069 L 1854.355 1054.005 L 1853.804 1054.144 L 1854.054 1055.14 L 1853.843 1055.194 L 1853.592 1054.197 L 1852.979 1054.351 L 1853.257 1055.457 L 1853.045 1055.511 Z  M 1853.252 1056.064 L 1853.169 1055.832 L 1854.917 1055.206 L 1855.195 1055.981 L 1855.195 1055.981 Q 1855.279 1056.215 1855.275 1056.353 L 1855.275 1056.353 L 1855.275 1056.353 Q 1855.271 1056.492 1855.178 1056.607 L 1855.178 1056.607 L 1855.178 1056.607 Q 1855.085 1056.723 1854.941 1056.775 L 1854.941 1056.775 L 1854.941 1056.775 Q 1854.755 1056.841 1854.584 1056.767 L 1854.584 1056.767 L 1854.584 1056.767 Q 1854.413 1056.692 1854.288 1056.453 L 1854.288 1056.453 L 1854.288 1056.453 Q 1854.277 1056.56 1854.251 1056.623 L 1854.251 1056.623 L 1854.251 1056.623 Q 1854.195 1056.758 1854.088 1056.899 L 1854.088 1056.899 L 1853.721 1057.373 L 1853.617 1057.082 L 1853.897 1056.72 L 1853.897 1056.72 Q 1854.018 1056.563 1854.078 1056.467 L 1854.078 1056.467 L 1854.078 1056.467 Q 1854.138 1056.372 1854.153 1056.308 L 1854.153 1056.308 L 1854.153 1056.308 Q 1854.168 1056.244 1854.162 1056.186 L 1854.162 1056.186 L 1854.162 1056.186 Q 1854.156 1056.143 1854.124 1056.054 L 1854.124 1056.054 L 1854.028 1055.786 L 1853.252 1056.064 Z  M 1854.807 1055.507 L 1854.228 1055.714 L 1854.407 1056.211 L 1854.407 1056.211 Q 1854.463 1056.37 1854.528 1056.447 L 1854.528 1056.447 L 1854.528 1056.447 Q 1854.593 1056.525 1854.682 1056.546 L 1854.682 1056.546 L 1854.682 1056.546 Q 1854.771 1056.566 1854.855 1056.536 L 1854.855 1056.536 L 1854.855 1056.536 Q 1854.979 1056.492 1855.027 1056.373 L 1855.027 1056.373 L 1855.027 1056.373 Q 1855.075 1056.254 1855.005 1056.06 L 1855.005 1056.06 L 1854.807 1055.507 Z  M 1854.157 1058.222 L 1854.052 1058 L 1855.533 1057.3 L 1855.272 1056.747 L 1855.47 1056.653 L 1856.099 1057.984 L 1855.9 1058.078 L 1855.638 1057.522 L 1854.157 1058.222 Z  M 1854.699 1059.241 L 1854.584 1059.024 L 1856.222 1058.15 L 1856.338 1058.366 L 1854.699 1059.241 Z  M 1855.069 1059.826 L 1854.932 1059.621 L 1856.478 1058.591 L 1857.173 1059.634 L 1856.99 1059.755 L 1856.432 1058.917 L 1855.953 1059.236 L 1856.437 1059.962 L 1856.254 1060.083 L 1855.771 1059.358 L 1855.069 1059.826 Z  M 1855.997 1061.146 L 1855.851 1060.948 L 1857.344 1059.843 L 1857.49 1060.041 L 1855.997 1061.146 Z  M 1857.185 1062.529 L 1856.255 1061.502 L 1857.631 1060.255 L 1858.533 1061.251 L 1858.37 1061.398 L 1857.634 1060.585 L 1857.212 1060.966 L 1857.902 1061.728 L 1857.74 1061.874 L 1857.051 1061.113 L 1856.582 1061.537 L 1857.347 1062.382 L 1857.185 1062.529 Z  M 1857.904 1063.237 L 1857.408 1062.787 L 1858.654 1061.411 L 1859.128 1061.84 L 1859.128 1061.84 Q 1859.289 1061.985 1859.355 1062.082 L 1859.355 1062.082 L 1859.355 1062.082 Q 1859.449 1062.216 1859.468 1062.363 L 1859.468 1062.363 L 1859.468 1062.363 Q 1859.494 1062.554 1859.418 1062.746 L 1859.418 1062.746 L 1859.418 1062.746 Q 1859.342 1062.938 1859.176 1063.122 L 1859.176 1063.122 L 1859.176 1063.122 Q 1859.034 1063.279 1858.887 1063.367 L 1858.887 1063.367 L 1858.887 1063.367 Q 1858.741 1063.455 1858.612 1063.482 L 1858.612 1063.482 L 1858.612 1063.482 Q 1858.483 1063.51 1858.374 1063.494 L 1858.374 1063.494 L 1858.374 1063.494 Q 1858.264 1063.477 1858.147 1063.414 L 1858.147 1063.414 L 1858.147 1063.414 Q 1858.029 1063.35 1857.904 1063.237 L 1857.904 1063.237 Z  M 1858.689 1061.738 L 1857.737 1062.79 L 1858.031 1063.056 L 1858.031 1063.056 Q 1858.167 1063.179 1858.267 1063.224 L 1858.267 1063.224 L 1858.267 1063.224 Q 1858.368 1063.269 1858.455 1063.264 L 1858.455 1063.264 L 1858.455 1063.264 Q 1858.579 1063.258 1858.714 1063.182 L 1858.714 1063.182 L 1858.714 1063.182 Q 1858.849 1063.105 1858.99 1062.949 L 1858.99 1062.949 L 1858.99 1062.949 Q 1859.186 1062.733 1859.22 1062.553 L 1859.22 1062.553 L 1859.22 1062.553 Q 1859.254 1062.373 1859.188 1062.241 L 1859.188 1062.241 L 1859.188 1062.241 Q 1859.141 1062.147 1858.978 1062 L 1858.978 1062 L 1858.689 1061.738 Z " fill-rule="evenodd" fill="rgb(255,255,255)"/><path d=" M 1862.888 1046.853 L 1862.888 1046.853 L 1862.888 1046.853 Q 1861.2 1046.853 1860.335 1047.713 L 1860.335 1047.713 L 1860.335 1047.713 Q 1859.469 1048.574 1859.469 1050.263 L 1859.469 1050.263 L 1859.469 1050.263 Q 1859.469 1051.956 1860.335 1052.816 L 1860.335 1052.816 L 1860.335 1052.816 Q 1861.2 1053.677 1862.888 1053.677 L 1862.888 1053.677 L 1862.888 1053.677 Q 1863.641 1053.677 1864.231 1053.497 L 1864.231 1053.497 L 1864.231 1053.497 Q 1864.82 1053.317 1865.227 1052.964 L 1865.227 1052.964 L 1865.227 1052.964 Q 1865.634 1052.611 1865.847 1052.089 L 1865.847 1052.089 L 1865.847 1052.089 Q 1866.06 1051.568 1866.06 1050.889 L 1866.06 1050.889 L 1864.105 1050.889 L 1864.105 1050.889 Q 1864.105 1051.455 1863.796 1051.776 L 1863.796 1051.776 L 1863.796 1051.776 Q 1863.487 1052.096 1862.86 1052.096 L 1862.86 1052.096 L 1862.86 1052.096 Q 1862.538 1052.096 1862.306 1051.984 L 1862.306 1051.984 L 1862.306 1051.984 Q 1862.075 1051.872 1861.925 1051.671 L 1861.925 1051.671 L 1861.925 1051.671 Q 1861.775 1051.469 1861.705 1051.189 L 1861.705 1051.189 L 1861.705 1051.189 Q 1861.635 1050.908 1861.635 1050.571 L 1861.635 1050.571 L 1861.635 1049.959 L 1861.635 1049.959 Q 1861.635 1049.622 1861.703 1049.341 L 1861.703 1049.341 L 1861.703 1049.341 Q 1861.771 1049.061 1861.92 1048.859 L 1861.92 1048.859 L 1861.92 1048.859 Q 1862.07 1048.658 1862.306 1048.546 L 1862.306 1048.546 L 1862.306 1048.546 Q 1862.542 1048.434 1862.879 1048.434 L 1862.879 1048.434 L 1862.879 1048.434 Q 1863.164 1048.434 1863.38 1048.523 L 1863.38 1048.523 L 1863.38 1048.523 Q 1863.595 1048.612 1863.742 1048.775 L 1863.742 1048.775 L 1863.742 1048.775 Q 1863.889 1048.939 1863.964 1049.168 L 1863.964 1049.168 L 1863.964 1049.168 Q 1864.039 1049.397 1864.039 1049.683 L 1864.039 1049.683 L 1866.06 1049.683 L 1866.06 1049.683 Q 1866.06 1048.99 1865.833 1048.462 L 1865.833 1048.462 L 1865.833 1048.462 Q 1865.606 1047.933 1865.192 1047.576 L 1865.192 1047.576 L 1865.192 1047.576 Q 1864.778 1047.218 1864.193 1047.035 L 1864.193 1047.035 L 1864.193 1047.035 Q 1863.609 1046.853 1862.888 1046.853 Z  M 1871.588 1050.085 L 1873.721 1046.97 L 1871.354 1046.97 L 1870.349 1048.654 L 1870.311 1048.654 L 1869.315 1046.97 L 1866.757 1046.97 L 1868.885 1050.076 L 1866.527 1053.56 L 1868.903 1053.56 L 1870.12 1051.511 L 1870.157 1051.511 L 1871.373 1053.56 L 1873.941 1053.56 L 1871.588 1050.085 Z  M 1881.308 1053.56 L 1878.904 1046.97 L 1876.443 1046.97 L 1874.034 1053.56 L 1876.2 1053.56 L 1876.481 1052.629 L 1878.787 1052.629 L 1879.067 1053.56 L 1881.308 1053.56 Z  M 1877.617 1048.808 L 1877.659 1048.808 L 1878.347 1051.156 L 1876.92 1051.156 L 1877.617 1048.808 Z " fill-rule="evenodd" fill="rgb(46,46,46)"/><path d=" M 1854.154 1050.132 L 1853.325 1049.949 L 1852.705 1050.529 L 1852.622 1049.684 L 1851.88 1049.274 L 1852.657 1048.934 L 1852.818 1048.101 L 1853.382 1048.735 L 1854.224 1048.631 L 1853.794 1049.363 L 1854.154 1050.132 Z " fill="rgb(255,255,255)"/><path d=" M 1887.687 1050.573 L 1887.06 1050.001 L 1886.234 1050.193 L 1886.584 1049.42 L 1886.146 1048.693 L 1886.99 1048.788 L 1887.546 1048.147 L 1887.716 1048.978 L 1888.498 1049.309 L 1887.76 1049.728 L 1887.687 1050.573 Z " fill="rgb(255,255,255)"/></g></svg>