<?xml version="1.0" standalone="no"?><!-- Generator: Gravit.io --><svg xmlns="http://www.w3.org/2000/svg" xmlns:xlink="http://www.w3.org/1999/xlink" style="isolation:isolate" viewBox="860 750.076 50 50" width="50" height="50"><path d=" M 885 750.077 C 887.294 750.077 889.508 750.372 891.64 750.967 C 893.773 751.561 895.766 752.399 897.622 753.482 C 899.472 754.56 901.175 755.873 902.688 757.388 C 904.203 758.901 905.515 760.604 906.593 762.453 C 907.674 764.309 908.513 766.302 909.108 768.435 C 909.703 770.568 910 772.781 910 775.077 C 910 775.972 909.914 776.902 909.742 777.871 C 909.571 778.841 909.314 779.793 908.973 780.716 C 908.635 781.637 908.201 782.521 907.679 783.352 C 907.176 784.161 906.564 784.896 905.859 785.538 C 905.166 786.166 904.369 786.671 903.505 787.028 C 902.591 787.4 901.612 787.586 900.625 787.576 C 898.896 787.578 897.198 787.106 895.719 786.21 C 894.994 785.763 894.333 785.221 893.753 784.597 C 893.156 783.959 892.658 783.235 892.276 782.45 C 891.794 783.207 891.229 783.908 890.591 784.54 C 889.965 785.159 889.269 785.703 888.517 786.161 C 886.988 787.094 885.229 787.583 883.438 787.576 C 881.778 787.576 880.272 787.215 878.921 786.491 C 877.59 785.783 876.415 784.815 875.467 783.644 C 874.503 782.45 873.758 781.095 873.269 779.641 C 872.762 778.172 872.502 776.63 872.501 775.077 C 872.501 773.531 872.757 772.008 873.27 770.511 C 873.759 769.056 874.504 767.699 875.469 766.505 C 876.418 765.337 877.592 764.37 878.921 763.662 C 880.272 762.936 881.778 762.576 883.438 762.576 C 884.984 762.576 886.42 762.909 887.748 763.578 C 889.083 764.252 890.273 765.181 891.251 766.313 L 891.251 762.576 L 894.375 762.576 L 894.375 778.201 C 894.375 779.064 894.537 779.873 894.865 780.63 C 895.503 782.13 896.698 783.325 898.198 783.963 C 898.955 784.289 899.764 784.451 900.627 784.451 C 901.342 784.451 901.996 784.304 902.591 784.001 C 903.187 783.699 903.725 783.295 904.18 782.806 C 904.643 782.311 905.045 781.738 905.387 781.096 C 905.73 780.455 906.009 779.781 906.229 779.082 C 906.444 778.4 906.608 777.702 906.719 776.995 C 906.825 776.304 906.876 775.662 906.876 775.077 C 906.876 773.075 906.614 771.141 906.094 769.277 C 905.086 765.622 903.142 762.294 900.454 759.621 C 897.779 756.935 894.452 754.992 890.798 753.981 C 888.91 753.457 886.959 753.195 885 753.201 C 883 753.201 881.065 753.462 879.202 753.981 C 875.548 754.989 872.219 756.933 869.546 759.621 C 866.86 762.296 864.917 765.623 863.906 769.277 C 863.382 771.165 863.119 773.117 863.124 775.077 C 863.124 777.077 863.386 779.01 863.906 780.875 C 864.916 784.528 866.86 787.856 869.546 790.531 C 872.219 793.212 875.541 795.156 879.189 796.17 C 881.045 796.691 882.982 796.95 885 796.95 C 887.897 796.95 890.688 796.397 893.373 795.291 L 894.569 798.172 C 891.538 799.435 888.286 800.083 885.002 800.077 C 882.706 800.077 880.492 799.779 878.36 799.185 C 876.267 798.607 874.256 797.761 872.378 796.669 C 870.529 795.591 868.827 794.279 867.314 792.765 C 865.798 791.252 864.485 789.549 863.407 787.698 C 862.317 785.824 861.472 783.818 860.892 781.729 C 860.292 779.563 859.992 777.324 860 775.077 C 860 772.781 860.297 770.567 860.892 768.435 C 861.487 766.304 862.324 764.309 863.407 762.453 C 864.486 760.604 865.799 758.901 867.314 757.388 C 868.826 755.874 870.528 754.561 872.377 753.482 C 874.233 752.401 876.224 751.561 878.348 750.967 C 880.514 750.367 882.752 750.068 885 750.077 L 885 750.077 Z  M 883.438 784.451 C 884.658 784.451 885.753 784.172 886.721 783.61 C 887.679 783.056 888.514 782.313 889.175 781.424 C 889.852 780.512 890.372 779.493 890.714 778.41 C 891.065 777.333 891.246 776.209 891.251 775.077 C 891.251 773.968 891.07 772.857 890.714 771.743 C 890.371 770.66 889.851 769.642 889.175 768.729 C 888.516 767.839 887.68 767.095 886.721 766.543 C 885.751 765.983 884.658 765.702 883.438 765.702 C 882.216 765.702 881.123 765.983 880.155 766.543 C 879.196 767.097 878.361 767.84 877.701 768.729 C 877.024 769.641 876.503 770.66 876.162 771.743 C 875.811 772.82 875.63 773.944 875.625 775.077 C 875.625 776.183 875.806 777.293 876.162 778.408 C 876.523 779.522 877.034 780.527 877.701 781.422 C 878.368 782.318 879.186 783.048 880.155 783.61 C 881.155 784.178 882.288 784.468 883.438 784.451 L 883.438 784.451 Z " fill-rule="evenodd" fill="rgb(255,0,0)"/></svg>